<?xml version="1.0" standalone="no"?><!DOCTYPE svg PUBLIC "-//W3C//DTD SVG 1.1//EN" "http://www.w3.org/Graphics/SVG/1.1/DTD/svg11.dtd"><svg t="1766399995361" class="icon" viewBox="0 0 1024 1024" version="1.1" xmlns="http://www.w3.org/2000/svg" p-id="2289" xmlns:xlink="http://www.w3.org/1999/xlink" width="200" height="200"><path d="M681.4208 646.562133c9.122133 2.005333 13.056 4.317867 25.403733 3.626667-2.816 6.528-8.430933 14.660267-9.1904 21.649067-1.288533 11.8528 1.1776 26.9824 1.8688 38.2976 1.774933 28.842667-2.551467 56.465067 16.546134 81.416533 40.405333 52.778667 129.1264 68.701867 187.793066 39.3216 11.605333-5.8112 25.472-19.106133 35.2256-28.279467-0.725333 6.741333-6.621867 14.8992-10.820266 20.027734-168.7552 206.208-604.526933 205.730133-800.2816 38.109866-21.102933-18.0736-45.243733-43.357867-56.174934-69.0176 9.4976-0.896 6.766933 3.669333 14.600534 8.9856 56.192 38.101333 121.2672 43.784533 179.037866 5.026134 26.9824-18.0992 40.6016-42.5472 45.789867-73.9584 4.3264-26.171733 2.141867-43.4176-3.268267-69.154134-0.964267-4.573867-6.519467-14.4128-0.290133-16.0512 71.466667 9.5232 94.549333-48.264533 151.389867-68.1472 47.112533-16.477867 97.988267-8.5248 138.820266 19.2512 34.005333 23.133867 37.282133 38.715733 83.549867 48.896z m-200.686933-46.472533c-30.429867 5.137067-53.7856 32.836267-34.670934 62.301867 20.881067 32.1792 69.435733 40.6528 102.391467 23.560533 29.7216-15.4112 49.979733-50.312533 16.759467-73.770667-20.6336-14.5664-60.16-16.2048-84.48-12.091733zM602.231467 705.28c-1.365333 1.3312-1.544533 5.76-4.096 8.4736-39.671467 42.0608-111.726933 52.2752-159.744 17.9968-12.6976-9.070933-27.229867-37.444267-43.741867-29.0304-18.449067 9.386667 6.493867 37.410133 16.366933 45.525333 53.0432 43.579733 151.697067 42.717867 201.429334-5.538133 1.6896-1.6384 13.789867-17.408 14.122666-18.525867 5.2992-17.629867-12.3392-30.583467-24.337066-18.8928z" fill="#F9EEDC" p-id="2290"></path><path d="M108.0832 595.754667l39.9104 1.809066c-6.135467 9.642667-16.759467 8.840533-25.309867 14.609067-11.52 7.773867-33.408 42.376533-38.3232 56.029867-7.944533 22.075733-9.634133 71.04 3.848534 90.760533 2.8672 4.1984 22.272 20.309333 27.2128 23.586133 34.6112 22.946133 86.0416 23.1936 120.977066 1.408 16.110933-10.043733 27.6992-26.8544 35.746134-44.091733 10.359467-22.1696 9.557333-57.565867-2.619734-78.7712-2.8672-4.992-11.562667-11.989333-14.5152-18.141867-3.2768-6.852267-4.7616-12.586667 5.469867-10.914133 14.1568 5.290667 29.6448 9.710933 44.578133 11.5456l2.594134 2.9696c-6.237867 1.6384-0.674133 11.477333 0.290133 16.0512 5.410133 25.728 7.594667 42.9824 3.268267 69.154133-5.188267 31.4112-18.807467 55.8592-45.789867 73.9584-57.770667 38.7584-122.845867 33.066667-179.037867-5.026133-7.8336-5.307733-5.111467-9.8816-14.600533-8.9856-6.698667 0.631467-25.284267-44.7744-28.245333-53.4016-6.024533-17.536-12.416-40.8576-11.6736-59.093333 1.6128-39.253333 36.036267-80.0768 76.202666-83.464534z" fill="#F9E3CB" p-id="2291"></path><path d="M917.290667 595.754667c40.661333 4.0448 69.333333 41.3952 76.202666 79.829333-5.376 40.004267-24.6272 98.961067-54.434133 127.010133-9.7536 9.173333-23.620267 22.468267-35.2256 28.279467-58.666667 29.380267-147.387733 13.457067-187.793067-39.3216-19.106133-24.951467-14.7712-52.5824-16.546133-81.416533-0.6912-11.3152-3.157333-26.4448-1.8688-38.2976 0.759467-6.980267 6.3744-15.121067 9.1904-21.649067 1.706667-0.093867 3.438933 0.3072 5.102933-0.392533l2.1504-3.234134c2.414933 0.017067 4.8384-0.059733 7.253334 0 4.539733 0.119467 13.815467-2.3808 10.845866 5.393067-1.792 4.6848-6.903467 10.513067-9.088 16.324267-16.785067 44.757333-2.321067 111.957333 40.533334 137.378133 54.510933 32.341333 125.8752 22.468267 173.678933-17.5104 10.9056-9.122133 28.868267-35.2768 30.7712-49.058133 3.3024-23.825067-4.932267-75.136-15.249067-97.237334-9.3696-20.0704-28.936533-30.2336-42.811733-46.097066 2.397867 0.162133 4.881067-0.238933 7.253333 0z" fill="#F7EAD6" p-id="2292"></path><path d="M260.488533 632.046933c-10.231467-1.672533-8.746667 4.061867-5.469866 10.914134 2.944 6.161067 11.648 13.1584 14.5152 18.141866 12.177067 21.205333 12.9792 56.593067 2.619733 78.7712-8.046933 17.2288-19.6352 34.048-35.746133 44.091734-34.944 21.7856-86.3744 21.538133-120.977067-1.408-4.949333-3.2768-24.3456-19.387733-27.2128-23.586134-13.4912-19.720533-11.793067-68.676267-3.848533-90.760533 4.9152-13.653333 26.8032-48.247467 38.3232-56.029867 8.541867-5.768533 19.1744-4.9664 25.309866-14.609066l-39.9104-1.809067c3.029333-6.2976 14.0032-3.5584 19.968-3.618133 56.874667-0.580267 83.8656 21.742933 132.437334 39.9104z m-95.3856-10.112c-30.301867 4.309333-50.781867 32.981333-59.0336 60.714667-1.4336 4.821333-5.6832 23.552-5.435733 27.306667 0.264533 4.002133 12.219733 31.300267 15.214933 35.882666 11.5456 17.6896 46.1824 29.533867 66.551467 27.639467 15.709867-1.4592 41.3184-12.330667 50.781867-25.412267 1.928533-2.670933 15.470933-26.103467 15.914666-27.630933 7.168-24.797867-8.098133-63.8208-26.632533-81.194667-3.874133-3.6352-21.7088-16.529067-26.069333-17.476266-8.541867-1.860267-22.4-1.092267-31.2832 0.170666z" fill="#F9D4B7" p-id="2293"></path><path d="M917.290667 595.754667c-2.3808-0.238933-4.864 0.162133-7.253334 0l-36.283733 1.809066 38.2464 27.076267c18.858667 23.808 31.3088 47.470933 34.244267 78.225067 2.7648 28.970667-16.631467 63.035733-39.927467 79.675733-52.676267 37.623467-144.2048 24.917333-162.440533-44.219733-1.169067-4.420267-4.770133-21.248-4.522667-24.465067 0.290133-3.712 3.345067-7.2704 3.712-11.127467 1.425067-15.035733 0.64-28.279467 7.970133-42.820266 5.640533-11.195733 23.176533-16.512 21.111467-31.505067 38.8864-21.956267 79.505067-36.676267 125.184-36.2752 5.9648 0.0512 16.938667-2.679467 19.968 3.618133z m-70.0672 18.8416c-24.4224 3.387733-44.586667 10.624-60.629334 30.088533-30.404267 36.881067-30.344533 105.838933 18.133334 127.146667 25.198933 11.076267 43.895467 10.2656 69.0688-0.034134 26.112-10.6752 44.6976-28.970667 47.2832-57.9584 3.729067-41.745067-17.2032-73.173333-53.2992-92.16-6.280533-3.3024-13.576533-5.819733-20.5568-7.0912z" fill="#F9D6BA" p-id="2294"></path><path d="M910.037333 595.754667c13.8752 15.863467 33.442133 26.018133 42.811734 46.097066 10.3168 22.101333 18.542933 73.412267 15.249066 97.237334-1.911467 13.781333-19.874133 39.936-30.7712 49.058133-47.803733 39.978667-119.168 49.851733-173.678933 17.5104-42.8544-25.429333-57.3184-92.6208-40.533333-137.378133 2.176-5.8112 7.296-11.639467 9.088-16.324267 2.9696-7.773867-6.306133-5.2736-10.845867-5.393067l50.798933-18.141866c2.065067 14.993067-15.4624 20.309333-21.111466 31.505066-7.330133 14.532267-6.5536 27.784533-7.970134 42.820267-0.366933 3.857067-3.421867 7.406933-3.712 11.127467-0.247467 3.217067 3.362133 20.036267 4.522667 24.465066 18.2272 69.128533 109.764267 81.8432 162.440533 44.219734 23.296-16.64 42.692267-50.705067 39.927467-79.675734-2.935467-30.754133-15.3856-54.417067-34.244267-78.225066l-38.2464-27.076267 36.283734-1.809067z" fill="#F9E2CB" p-id="2295"></path><path d="M480.733867 600.0896c24.32-4.104533 63.8464-2.474667 84.48 12.091733 33.220267 23.4496 12.962133 58.350933-16.759467 73.770667-32.964267 17.092267-81.518933 8.618667-102.391467-23.560533-19.114667-29.4656 4.241067-57.1648 34.670934-62.301867z" fill="#4E2F27" p-id="2296"></path><path d="M602.231467 705.28c11.997867-11.690667 29.636267 1.2544 24.337066 18.8928-0.3328 1.117867-12.433067 16.887467-14.122666 18.525867-49.732267 48.256-148.386133 49.117867-201.429334 5.538133-9.873067-8.1152-34.816-36.130133-16.366933-45.525333 16.520533-8.405333 31.044267 19.968 43.741867 29.0304 48.008533 34.2784 120.072533 24.072533 159.744-17.9968 2.56-2.7136 2.730667-7.1424 4.096-8.4736z" fill="#4D2D25" p-id="2297"></path><path d="M165.034667 15.863467c29.678933-5.1456 72.183467 16.4096 97.979733 31.249066 37.307733 21.461333 70.8352 49.408 104.3968 76.032 7.867733-1.749333 18.0224-5.2736 25.608533-6.306133 86.946133-11.844267 178.218667-11.229867 264.3456 6.9376 27.477333-23.995733 57.088-48.853333 88.132267-68.138667 52.864-32.8448 113.7664-66.7136 160.9984-6.0672 34.6112 44.4416 54.408533 158.7456 57.915733 214.2464 2.500267 39.552-5.137067 89.7024 0.0768 126.933334 1.220267 8.721067 10.4704 23.901867 13.738667 33.4336 47.325867 137.7792 79.556267 273.0752-15.709867 400.0512-136.900267 182.459733-450.107733 217.6-654.933333 158.1056C75.997867 915.054933-49.314133 752.913067 18.244267 507.733333c9.198933-33.3824 38.784-92.8768 42.666666-120.6272 5.521067-39.5264-2.7904-92.322133 0.0768-134.186666 3.6096-52.795733 21.930667-158.1824 52.6336-201.378134 10.427733-14.6688 33.425067-32.554667 51.413334-35.677866zM31.880533 679.2192c-0.750933 18.235733 5.649067 41.557333 11.6736 59.093333 2.961067 8.6272 21.546667 54.033067 28.245334 53.4016 10.9312 25.659733 35.072 50.944 56.174933 69.0176 195.746133 167.620267 631.517867 168.106667 800.2816-38.109866 4.1984-5.128533 10.094933-13.277867 10.820267-20.027734 29.806933-28.049067 49.0496-87.005867 54.434133-127.010133 9.130667-67.857067-2.5344-130.167467-23.5008-196.036267-7.6032-23.876267-27.9808-63.172267-30.8736-85.248-4.258133-32.554667 1.8176-74.769067 0.093867-108.962133-2.824533-56.149333-20.1216-173.277867-52.864-219.2896-14.250667-20.027733-34.2016-25.181867-57.966934-21.8624-27.904 3.8912-102.144 56.96-127.086933 76.125867-6.033067 4.6336-29.909333 27.741867-33.032533 28.6464-13.218133 3.8656-36.317867-4.932267-50.414934-6.7328-65.194667-8.328533-129.8688-9.693867-195.8144-3.618134l-61.738666 11.0592C313.207467 117.0944 264.337067 70.545067 209.749333 49.578667c-27.605333-10.606933-48.221867-13.713067-69.060266 10.871466-30.0544 35.464533-46.148267 131.387733-50.8928 177.7152-5.1968 50.670933 2.525867 108.817067-3.5328 156.1344-3.080533 24.029867-29.8496 77.883733-38.144 107.008-16.1024 56.584533-20.292267 99.106133-19.848534 157.943467 0.042667 5.956267-2.670933 16.9472 3.618134 19.968z" fill="#4B2A21" p-id="2298"></path><path d="M993.493333 675.592533c-6.869333-38.434133-35.549867-75.784533-76.202666-79.829333-3.029333-6.2976-14.0032-3.566933-19.968-3.618133-45.678933-0.401067-86.289067 14.318933-125.184 36.2752l-50.798934 18.141866c-2.414933-0.059733-4.8384 0.017067-7.253333 0-10.8544-0.093867-21.802667 0.059733-32.657067 0-46.267733-10.180267-49.544533-25.762133-83.549866-48.896-40.832-27.776-91.707733-35.729067-138.820267-19.2512-56.849067 19.882667-79.9232 77.6704-151.389867 68.1472l-2.594133-2.9696c-14.941867-1.834667-30.429867-6.254933-44.578133-11.5456-48.571733-18.167467-75.562667-40.490667-132.437334-39.9104-5.9648 0.059733-16.938667-2.679467-19.968 3.618134-40.1664 3.3792-74.589867 44.2112-76.202666 83.464533-6.289067-3.0208-3.575467-14.011733-3.618134-19.968-0.443733-58.8288 3.746133-101.358933 19.848534-157.943467 8.285867-29.124267 35.063467-82.978133 38.144-107.008 6.058667-47.317333-1.664-105.454933 3.5328-156.1344 4.744533-46.336 20.8384-142.250667 50.8928-177.7152 20.8384-24.593067 41.454933-21.4784 69.060266-10.871466 54.587733 20.974933 103.458133 67.524267 150.562134 100.087466l61.738666-11.0592c65.9456-6.075733 130.619733-4.7104 195.8144 3.618134 14.097067 1.800533 37.1968 10.5984 50.414934 6.7328 3.1232-0.913067 26.999467-24.0128 33.032533-28.6464 24.9344-19.165867 99.182933-72.234667 127.086933-76.125867 23.765333-3.310933 43.716267 1.8432 57.966934 21.8624 32.750933 46.011733 50.048 163.140267 52.864 219.2896 1.7152 34.193067-4.352 76.407467-0.093867 108.962133 2.884267 22.084267 23.2704 61.371733 30.8736 85.248 20.9664 65.8688 32.631467 128.1792 23.5008 196.036267z m-711.227733-489.898666c1.3824-5.5552-1.245867-5.930667-3.626667-9.070934-11.8784-15.6928-59.818667-60.731733-78.0288-63.488-28.074667-4.2496-36.3008 12.040533-43.682133 36.138667-9.198933 30.0288-16.1024 94.464-12.552533 125.320533 0.512 4.420267 4.1216 8.021333 3.626666 12.714667 6.664533 1.4848 7.108267-2.0736 10.325334-5.998933 25.079467-30.600533 60.177067-59.255467 93.6448-80.5376 8.9088-5.666133 20.317867-12.910933 30.293333-15.0784z m535.8336-71.970134c-12.2624 2.722133-54.997333 40.721067-64.170667 51.950934-2.4832 3.037867-11.511467 15.616-10.820266 18.141866 22.237867 15.223467 46.6432 27.767467 67.208533 45.3632 17.544533 15.010133 33.3824 35.072 50.730667 50.875734 9.787733 8.9088 15.0784 11.511467 16.426666-5.341867 2.875733-35.959467-5.128533-97.979733-16.341333-132.6336-3.601067-11.118933-6.656-19.7632-16.324267-27.221333-5.828267-2.944-19.959467-2.6368-26.709333-1.134934zM339.259733 342.485333c-32.315733 4.3008-43.170133 24.32-38.852266 55.5008 3.319467 23.9872 41.557333 45.9776 63.556266 48.930134 48.162133 6.4512 74.3936-38.3232 43.323734-75.972267-12.603733-15.266133-48.580267-31.044267-68.027734-28.458667z m326.596267 0.042667c-39.509333 5.2224-86.638933 45.2608-58.7264 86.2208 20.548267 30.148267 70.749867 15.8208 94.327467-3.473067 8.5248-6.980267 20.795733-30.848 20.027733-41.642666-1.9968-28.100267-29.371733-44.5696-55.620267-41.105067zM416.443733 501.504c-5.7344-0.827733-9.9072-3.3792-16.085333-3.8912-52.283733-4.334933-110.481067 3.549867-163.447467 0.170667-22.434133 3.191467-22.528 25.156267 1.800534 21.802666-8.106667 64.068267 35.601067 106.837333 99.797333 97.937067 14.318933-1.988267 38.7072-20.9408 47.0784-32.750933 13.917867-19.626667 13.781333-42.1376 12.808533-65.194667l14.660267-1.698133 3.387733-16.384z m373.7088 17.8944l3.6096-12.202667-16.1792-9.412266c-54.2464 3.345067-113.4848-4.4544-167.074133-0.170667-3.771733 0.298667-15.8464 2.807467-16.256 5.7344l3.575467 14.532267 18.2784 1.681066c-10.845867 33.664 6.7072 71.458133 37.4016 87.7824 65.467733 34.824533 133.870933-15.496533 122.248533-87.799466l14.395733-0.145067z" fill="#F7C07C" p-id="2299"></path><path d="M790.152533 519.3984l-14.395733 0.145067c11.6224 72.302933-56.7808 122.624-122.248533 87.799466-30.6944-16.3328-48.256-54.1184-37.4016-87.7824l-18.2784-1.681066-3.575467-14.532267c0.418133-2.926933 12.4928-5.4272 16.256-5.7344 53.589333-4.283733 112.836267 3.515733 167.074133 0.170667l16.1792 9.412266-3.6096 12.202667z m-108.731733 0.1536h-50.798933c10.6496 28.680533 40.123733 28.731733 50.798933 0zM416.443733 501.504l-3.387733 16.384-14.660267 1.698133c0.981333 23.048533 1.109333 45.559467-12.808533 65.194667-8.3712 11.810133-32.759467 30.762667-47.0784 32.750933-64.196267 8.900267-107.904-33.877333-99.797333-97.937066-24.328533 3.362133-24.234667-18.6112-1.800534-21.802667 52.9664 3.3792 111.163733-4.5056 163.447467-0.170667 6.186667 0.512 10.350933 3.063467 16.085333 3.8912z m-36.206933 18.056533h-45.346133c-6.741333 7.893333 4.829867 17.578667 12.509866 20.130134 15.36 5.102933 32.145067-3.848533 32.8448-20.130134z" fill="#502F27" p-id="2300"></path><path d="M282.2656 185.693867c-9.975467 2.176-21.376 9.412267-30.293333 15.0784-33.467733 21.282133-68.565333 49.937067-93.6448 80.5376-3.217067 3.925333-3.6608 7.4752-10.325334 5.998933 0.494933-4.6848-3.114667-8.2944-3.626666-12.714667-3.5584-30.856533 3.3536-95.291733 12.552533-125.320533 7.381333-24.098133 15.607467-40.379733 43.682133-36.138667 18.210133 2.756267 66.1504 47.7952 78.0288 63.488 2.3808 3.140267 5.000533 3.515733 3.626667 9.070934z" fill="#F8C4B2" p-id="2301"></path><path d="M818.0992 113.723733c6.749867-1.501867 20.881067-1.809067 26.709333 1.134934 9.668267 7.458133 12.7232 16.1024 16.324267 27.221333 11.221333 34.653867 19.2256 96.674133 16.341333 132.6336-1.348267 16.853333-6.638933 14.250667-16.426666 5.341867-17.3568-15.7952-33.186133-35.8656-50.730667-50.875734-20.5568-17.5872-44.962133-30.1312-67.208533-45.3632-0.699733-2.525867 8.337067-15.104 10.820266-18.141866 9.173333-11.229867 51.899733-49.2288 64.170667-51.950934z" fill="#F9C6B3" p-id="2302"></path><path d="M339.259733 342.485333c19.447467-2.5856 55.424 13.184 68.027734 28.458667 31.069867 37.649067 4.829867 82.423467-43.323734 75.972267-21.9904-2.944-60.228267-24.9344-63.556266-48.930134-4.317867-31.1808 6.536533-51.2 38.852266-55.5008z" fill="#F6EEDB" p-id="2303"></path><path d="M665.856 342.528c26.248533-3.473067 53.632 12.996267 55.620267 41.105067 0.768 10.794667-11.502933 34.670933-20.027734 41.642666-23.5776 19.293867-73.7792 33.621333-94.327466 3.473067-27.912533-40.96 19.217067-80.9984 58.7264-86.2208z" fill="#F7EEDB" p-id="2304"></path><path d="M714.0864 646.562133l-2.1504 3.234134c-1.664 0.6912-3.396267 0.298667-5.102933 0.392533-12.347733 0.6912-16.273067-1.621333-25.403734-3.626667 10.8544 0.059733 21.802667-0.093867 32.657067 0z" fill="#F9E2CB" p-id="2305"></path><path d="M681.4208 519.552c-10.6752 28.731733-40.157867 28.680533-50.798933 0h50.798933z" fill="#EFE8DD" p-id="2306"></path><path d="M380.2368 519.560533c-0.699733 16.2816-17.4848 25.233067-32.8448 20.130134-7.671467-2.551467-19.242667-12.2368-12.509867-20.138667h45.346134z" fill="#EAE3DB" p-id="2307"></path><path d="M165.102933 621.934933c8.891733-1.262933 22.741333-2.030933 31.2832-0.170666 4.360533 0.9472 22.186667 13.8496 26.069334 17.476266 18.542933 17.3824 33.800533 56.405333 26.632533 81.194667-0.443733 1.527467-13.9776 24.96-15.914667 27.630933-9.463467 13.0816-35.072 23.953067-50.781866 25.412267-20.369067 1.8944-54.997333-9.941333-66.551467-27.639467-2.9952-4.5824-14.9504-31.889067-15.214933-35.882666-0.247467-3.754667 4.002133-22.485333 5.435733-27.306667 8.2432-27.733333 28.731733-56.413867 59.0336-60.714667z m10.9568 25.181867c-45.508267 6.9632-62.856533 65.672533-24.337066 91.8784 16.401067 11.153067 40.942933 7.133867 54.4768-7.0144 19.2256-20.113067 18.2528-49.322667 1.595733-70.826667-5.640533-7.287467-23.133867-15.351467-31.735467-14.037333z" fill="#FAC7A7" p-id="2308"></path><path d="M847.223467 614.596267c6.980267 1.271467 14.276267 3.7888 20.5568 7.0912 36.096 18.986667 57.019733 50.414933 53.2992 92.16-2.5856 28.9792-21.162667 47.274667-47.2832 57.9584-25.173333 10.2912-43.869867 11.1104-69.0688 0.034133-48.477867-21.307733-48.5376-90.2656-18.133334-127.146667 16.042667-19.464533 36.206933-26.7008 60.629334-30.088533z m29.397333 43.605333c-1.322667-1.3312-14.4384-8.669867-17.3056-9.9072-38.570667-16.7168-70.186667 20.573867-65.3312 58.0864 1.962667 15.172267 18.193067 39.5776 34.414933 41.7792 24.6784 3.345067 43.562667-0.802133 57.9584-21.8624 8.9344-13.073067 7.4752-40.516267 0.0768-54.2976-0.503467-0.930133-9.207467-13.192533-9.8048-13.789867z" fill="#F9CAAB" p-id="2309"></path><path d="M176.059733 647.1168c8.593067-1.314133 26.0864 6.749867 31.735467 14.037333 16.657067 21.504 17.6384 50.7136-1.595733 70.826667-13.533867 14.1568-38.075733 18.176-54.4768 7.0144-38.519467-26.205867-21.1712-84.923733 24.337066-91.8784z" fill="#FBBB97" p-id="2310"></path><path d="M876.6208 658.2016c0.597333 0.597333 9.301333 12.859733 9.8048 13.789867 7.406933 13.789867 8.8576 41.224533-0.0768 54.2976-14.395733 21.0688-33.28 25.216-57.9584 21.8624-16.213333-2.2016-32.452267-26.606933-34.414933-41.7792-4.855467-37.512533 26.760533-74.8032 65.3312-58.0864 2.8672 1.245867 15.991467 8.584533 17.3056 9.9072z" fill="#FBBC99" p-id="2311"></path></svg>