<?xml version="1.0" standalone="no"?><!DOCTYPE svg PUBLIC "-//W3C//DTD SVG 1.1//EN" "http://www.w3.org/Graphics/SVG/1.1/DTD/svg11.dtd"><svg t="1766400004650" class="icon" viewBox="0 0 1024 1024" version="1.1" xmlns="http://www.w3.org/2000/svg" p-id="2289" xmlns:xlink="http://www.w3.org/1999/xlink" width="200" height="200"><path d="M679.399723 641.578667c0.273067 0.0768 0.648533 3.029333 2.645333 3.464533 10.581333 2.312533 27.451733 1.2032 37.905067-1.3568v-2.107733c2.6624-0.221867 5.674667 0.426667 8.106666 0 13.3888-0.896 7.620267 2.1248 2.030934 8.106666-4.283733 4.590933-16.529067 14.455467-17.749334 18.747734-1.723733 6.101333-5.128533 33.578667-4.488533 39.9616 3.592533 35.5072 22.8608 84.283733 52.753067 105.412266 11.946667 8.448 56.3712 22.212267 70.101333 21.597867 33.1264-1.476267 64.3328-26.308267 97.5104-28.1344l18.807467-11.605333c-121.531733 174.301867-394.487467 211.84-589.073067 169.378133-103.978667-22.690133-204.9792-69.674667-270.592-153.156267l27.025067 11.4944c32.648533 0 63.5392 12.484267 96.554666 8.6784 66.363733-7.645867 103.261867-56.6016 111.735467-119.381333 1.928533-14.301867 2.440533-33.194667-0.759467-48.170667-1.467733-6.852267-9.105067-11.4688-7.466666-18.884266 9.873067-0.938667 21.111467 1.314133 30.685866 0.110933 5.597867-0.699733 5.469867-4.036267 5.802667-4.1728 51.643733-20.48 84.9664-68.1728 139.733333-73.1648 41.634133-3.7888 77.5424 1.937067 111.505067 26.7008 30.3616 22.126933 36.514133 35.643733 77.218133 46.455467z m-154.094934 48.674133c40.354133-3.9424 85.410133-53.1968 40.456534-83.0464-23.662933-15.709867-63.069867-17.109333-89.3184-8.405333-65.373867 21.674667-30.267733 80.085333 20.488533 91.451733 1.3312 7.611733-5.316267 12.1088-10.7008 15.650133-17.732267 11.656533-54.510933 15.104-68.292267-3.584-6.237867-8.456533-5.265067-23.185067-10.0352-26.461866l-16.4096-1.8432c-6.0416 34.030933 11.101867 49.041067 36.096 67.310933-2.423467 62.190933 47.8464 127.616 113.988267 101.034667 42.760533-17.186133 55.825067-64.930133 56.951467-107.281067 21.563733 0.4096 44.407467-41.3696 34.363733-57.1392-26.939733-14.532267-18.619733 8.994133-24.354133 20.514133-5.000533 10.052267-25.207467 20.539733-36.608 20.497067-15.2576-0.059733-45.312-10.5216-46.634667-28.706133z" fill="#FAF0DD" p-id="2290"></path><path d="M148.182656 592.9216c7.2448 11.383467 3.6864 5.930667-4.164267 9.949867-22.306133 11.4432-50.747733 24.2688-59.861333 49.706666-5.7088 15.931733-15.786667 52.053333-12.356267 67.413334 2.944 13.175467 34.474667 59.2384 45.8752 67.652266 11.972267 8.823467 16.162133 5.751467 27.639467 8.8576 6.9632 1.885867 14.216533 6.2976 21.1712 7.210667 18.397867 2.423467 58.9056-0.605867 74.922667-10.103467 4.6848-2.781867 9.6-10.1888 14.165333-14.344533 2.986667-2.7136 7.637333-2.986667 9.361067-4.7104 1.425067-1.425067 12.373333-17.7152 13.883733-20.5824 19.268267-36.6336 10.496-79.112533-0.878933-116.445867 4.1216 1.211733 21.179733 3.848533 26.1888 4.232534 15.069867 1.143467 31.5392-1.160533 46.805333-0.170667-0.3328 0.128-0.213333 3.464533-5.802667 4.1728-9.5744 1.2032-20.8128-1.0496-30.685866-0.110933-1.6384 7.415467 5.998933 12.032 7.466666 18.884266 3.208533 14.967467 2.688 33.8688 0.759467 48.170667-8.4736 62.779733-45.3632 111.735467-111.735467 119.381333-33.015467 3.805867-63.906133-8.669867-96.554666-8.6784l-27.025067-11.4944c-0.896-1.143467-5.751467-2.423467-8.192-5.870933-20.6592-29.226667-52.369067-96.699733-48.580267-132.002133 3.771733-35.1744 35.874133-67.652267 68.932267-77.047467 4.2496-1.211733 11.485867-3.976533 12.168533-4.053333 10.094933-1.211733 25.984-0.682667 36.497067 0z" fill="#FAE7D1" p-id="2291"></path><path d="M910.533589 592.9216c49.749333 3.3536 82.679467 44.194133 81.1008 93.269333-1.339733 41.489067-22.161067 77.294933-44.603733 109.482667l-18.807467 11.605333c-33.1776 1.826133-64.384 26.658133-97.5104 28.1344-13.730133 0.6144-58.154667-13.149867-70.101333-21.597866-29.892267-21.128533-49.160533-69.905067-52.753067-105.412267-0.648533-6.382933 2.756267-33.860267 4.488534-39.9616 1.220267-4.292267 13.457067-14.1568 17.749333-18.747733 5.597867-5.9904 11.357867-9.002667-2.030933-8.106667 2.1248-0.375467 15.010133-6.468267 20.2752-8.106667 9.719467 16.759467-9.796267 32.7936-12.100267 50.756267-2.321067 18.167467-0.452267 37.7856 5.956267 54.7328 20.138667 53.248 61.576533 73.6512 116.864 64.034133 24.635733-13.1072 64.298667-16.981333 79.351466-42.308266 10.9824-18.4832 11.016533-62.779733 8.533334-84.539734-3.4304-30.011733-17.271467-43.8784-38.3488-63.0272-6.570667-5.973333-19.157333-7.816533-18.3296-20.1984 6.673067-0.0768 13.6448-0.443733 20.2752 0z" fill="#FAE6D0" p-id="2292"></path><path d="M277.949056 637.525333c11.374933 37.341867 20.1472 79.8208 0.878933 116.445867-1.5104 2.8672-12.450133 19.157333-13.883733 20.5824-1.723733 1.7152-6.3744 1.9968-9.361067 4.7104-4.573867 4.155733-9.480533 11.562667-14.165333 14.344533-16.008533 9.4976-56.516267 12.526933-74.922667 10.103467-6.954667-0.913067-14.208-5.3248-21.1712-7.210667-11.477333-3.106133-15.6672-0.034133-27.639466-8.8576-11.409067-8.413867-42.939733-54.4768-45.8752-67.652266-3.4304-15.36 6.647467-51.4816 12.356266-67.413334 9.1136-25.4464 37.5552-38.263467 59.861334-49.706666 7.842133-4.027733 11.409067 1.4336 4.164266-9.949867 47.880533 3.0976 87.150933 32.1024 129.757867 44.603733z m-15.547733 59.938134c0-44.6976-36.232533-80.930133-80.930134-80.930134s-80.930133 36.232533-80.930133 80.930134 36.232533 80.930133 80.930133 80.930133 80.930133-36.232533 80.930134-80.930133z" fill="#FAD9BF" p-id="2293"></path><path d="M849.707989 596.974933c13.115733 18.9184 48.7424 32.443733 60.996267 50.517334 3.063467 4.522667 15.394133 31.9232 16.0512 36.667733 2.7904 20.241067-0.503467 50.9696-14.165333 66.926933-7.424 8.669867-31.854933 14.9248-41.156267 23.722667-31.428267 2.986667-50.4832 10.666667-78.378667-9.668267-11.229867-8.192-29.508267-40.311467-32.1024-53.393066-0.9472-4.778667 1.826133-7.995733 1.834667-11.383467 0.059733-23.338667 5.000533-35.780267 13.038933-57.6512 1.5616-4.258133 8.234667-15.744 0.896-17.3568 26.052267-10.069333 41.386667-21.870933 72.994134-28.381867z m-47.803733 53.572267c-8.942933 8.866133-7.278933 19.703467-9.0624 29.457067-1.024 5.5808-4.1984 10.0608-4.2752 16.298666-0.0768 6.365867 8.379733 26.820267 12.3136 32.631467 15.803733 23.3216 58.077867 26.999467 79.317333 10.043733 20.514133-16.375467 24.891733-53.896533 10.231467-75.264-5.341867-7.7824-29.2608-24.840533-38.690133-26.180266-13.986133-1.979733-39.697067 2.961067-49.834667 13.013333z" fill="#FACEB1" p-id="2294"></path><path d="M882.151723 592.9216c2.688-0.145067 5.418667 0.034133 8.106666 0-0.827733 12.381867 11.758933 14.225067 18.3296 20.1984 21.0688 19.157333 34.9184 33.024 38.3488 63.0272 2.491733 21.768533 2.449067 66.056533-8.533333 84.539733-15.0528 25.326933-54.715733 29.192533-79.351467 42.308267-55.287467 9.617067-96.7168-10.786133-116.864-64.034133-6.408533-16.9472-8.277333-36.573867-5.956266-54.7328 2.295467-17.962667 21.8112-33.9968 12.100266-50.756267 2.235733-0.699733 6.058667 0.7424 8.106667 0 14.114133-1.5616 6.1696 4.292267 4.949333 11.0336-4.369067 24.106667-16.6144 46.737067-13.056 72.0896 0.896 6.391467 19.626667 43.835733 24.1664 48.827733 16.896 18.577067 54.8352 29.9008 79.3344 26.299734 6.826667-1.006933 8.7552-6.528 12.629334-7.645867 5.8112-1.681067 12.637867 0.187733 19.063466-1.211733 7.432533-1.6128 36.206933-21.188267 41.088-27.844267 11.639467-15.872 8.96-24.814933 10.3168-42.368 0.324267-4.164267 3.933867-8.132267 3.9424-12.2624 0.017067-4.360533-11.793067-50.705067-14.1824-54.715733-5.649067-9.472-36.1728-33.851733-46.754133-42.5984-5.572267-4.608-12.040533 1.885867-3.899733-10.146134 2.6624-0.238933 5.4272 0.145067 8.106666 0z" fill="#FADBC2" p-id="2295"></path><path d="M874.036523 592.9216c-8.132267 12.040533-1.664 5.546667 3.899733 10.146133 10.581333 8.746667 41.105067 33.1264 46.754133 42.5984 2.389333 4.002133 14.199467 50.3552 14.1824 54.715734-0.017067 4.130133-3.626667 8.098133-3.9424 12.2624-1.3568 17.553067 1.322667 26.496-10.3168 42.368-4.881067 6.664533-33.655467 26.231467-41.088 27.844266-6.4256 1.399467-13.252267-0.469333-19.063466 1.211734-3.874133 1.117867-5.802667 6.638933-12.629334 7.645866-24.490667 3.601067-62.429867-7.722667-79.3344-26.299733-4.539733-4.983467-23.2704-42.436267-24.1664-48.827733-3.5584-25.352533 8.686933-47.982933 13.056-72.0896 1.220267-6.7328 9.1648-12.5952-4.949333-11.0336 5.341867-1.928533 13.969067-5.674667 20.2752-8.106667 7.338667 1.6128 0.6656 13.098667-0.896 17.3568-8.046933 21.870933-12.9792 34.312533-13.038933 57.6512-0.008533 3.387733-2.781867 6.6048-1.834667 11.383467 2.594133 13.0816 20.872533 45.201067 32.1024 53.393066 27.895467 20.334933 46.9504 12.654933 78.378667 9.668267 9.301333-8.8064 33.732267-15.0528 41.156266-23.722667 13.661867-15.957333 16.964267-46.685867 14.165334-66.926933-0.657067-4.744533-12.987733-32.145067-16.0512-36.667733-12.245333-18.0736-47.872-31.598933-60.996267-50.517334 7.893333-1.629867 16.2816-3.328 24.328533-4.053333z" fill="#FAD9BF" p-id="2296"></path><path d="M525.304789 690.2528c1.314133 18.184533 31.377067 28.654933 46.634667 28.706133 11.400533 0.042667 31.607467-10.453333 36.608-20.497066 5.725867-11.52-2.5856-35.0464 24.354133-20.514134 10.043733 15.7696-12.808533 57.5488-34.363733 57.1392-1.117867 42.350933-14.1824 90.094933-56.951467 107.281067-66.141867 26.581333-116.411733-38.843733-113.988266-101.034667-24.994133-18.269867-42.1376-33.28-36.096-67.310933l16.4096 1.8432c4.770133 3.285333 3.797333 18.005333 10.0352 26.461867 13.781333 18.688 50.56 15.232 68.292266 3.584 5.384533-3.5328 12.032-8.0384 10.7008-15.650134-50.747733-11.374933-85.853867-69.7856-20.488533-91.451733 26.248533-8.704 65.655467-7.304533 89.3184 8.405333 44.9536 29.841067-0.1024 79.104-40.456533 83.0464z m40.490667 89.275733c-36.727467-17.860267-63.197867-15.1296-100.1472-0.802133-4.488533 1.7408-6.4512-1.109333-5.333333 6.818133 2.1248 15.018667 25.019733 34.7136 39.296 37.853867 29.021867 6.3744 64.520533-13.0304 66.184533-43.861333z" fill="#523129" p-id="2297"></path><path d="M163.158656 17.885867c8.712533-1.5104 18.116267-1.527467 26.820267 0 30.626133 5.3504 81.7408 35.976533 108.0576 54.144 23.671467 16.341333 44.7232 36.770133 67.5584 54.229333l64.494933-11.7504c54.434133-4.5568 107.605333-4.5568 162.039467 0l64.4864 11.741867c42.410667-37.589333 91.067733-78.08 144.366933-99.072 41.122133-16.196267 72.0384-15.488 101.512533 20.266666 37.248 45.192533 57.4464 161.152 60.928 218.871467 2.235733 37.0688-4.744533 82.2272-0.110933 117.7088 2.9184 22.340267 22.869333 59.502933 30.506667 83.037867 40.055467 123.426133 51.4048 258.542933-36.829867 364.945066-176.7424 213.12-589.3376 224.068267-808.712533 75.093334C-3.318144 804.138667-26.580011 651.067733 24.389589 483.319467c8.021333-26.3936 31.598933-72.4992 34.517334-95.249067 4.7104-36.736-2.261333-83.3792-0.110934-121.762133 1.937067-34.4832 9.693867-82.013867 17.3312-116.48 10.333867-46.626133 32.8448-122.538667 87.031467-131.9424zM30.584789 674.0224c-3.7888 35.3024 27.921067 102.775467 48.580267 132.002133 2.432 3.438933 7.287467 4.727467 8.192 5.870934 65.621333 83.4816 166.621867 130.466133 270.592 153.156266 194.5856 42.461867 467.541333 4.923733 589.073067-169.378133 22.442667-32.187733 43.264-67.9936 44.603733-109.482667l8.302933-54.587733c-3.950933-47.189333-12.288-94.336-26.427733-140.177067-8.439467-27.3664-31.249067-70.2464-34.517333-95.240533-5.7344-43.8784 0.887467-98.944-3.950934-146.090667-5.026133-49.066667-23.816533-168.823467-65.160533-198.417066-22.485333-16.093867-37.1456-9.514667-60.782933-0.170667-36.8896 14.592-88.311467 53.418667-119.637334 79.0528-9.352533 7.6544-15.6416 19.9168-28.2368 23.125333-17.0752-3.072-35.874133-8.576-52.855466-10.811733-46.702933-6.135467-114.7648-7.662933-162.304-4.3008-21.768533 1.536-47.616 10.308267-68.8384 12.253867-7.790933 0.7168-15.957333 0.392533-23.739734-0.418134C309.846656 114.432 254.533589 66.773333 201.046656 47.368533c-64.503467-23.406933-84.9664 49.578667-96.622933 98.312534-11.639467 48.64-19.0976 111.616-21.2992 161.1776-1.245867 28.117333 3.6096 62.557867 0.110933 89.3184-3.6608 27.997867-29.678933 79.675733-38.570667 111.470933-14.071467 50.321067-18.517333 91.8016-18.1248 144.0512 0.0512 6.664533-2.986667 18.935467 4.0448 22.314667z" fill="#4D2C23" p-id="2298"></path><path d="M991.634389 686.190933c1.578667-49.066667-31.351467-89.9072-81.1008-93.269333l-2.389333-3.6096c-7.790933-0.913067-15.7952-0.913067-23.6032 0l-2.389333 3.6096c-2.679467 0.145067-5.444267-0.238933-8.106667 0-8.046933 0.725333-16.4352 2.432-24.328533 4.053333-31.607467 6.510933-46.933333 18.312533-72.994134 28.381867-6.306133 2.440533-14.933333 6.186667-20.2752 8.106667-2.048 0.7424-5.879467-0.699733-8.106666 0-5.265067 1.646933-18.1504 7.739733-20.2752 8.106666-2.432 0.426667-5.444267-0.221867-8.106667 0-13.192533 1.092267-27.2384-0.759467-40.5504 0-40.712533-10.811733-46.865067-24.328533-77.218133-46.455466-33.9712-24.763733-69.879467-30.498133-111.505067-26.7008-54.7584 4.992-88.0896 52.6848-139.733333 73.1648-15.266133-0.989867-31.735467 1.322667-46.805334 0.170666-5.009067-0.384-22.058667-3.0208-26.1888-4.232533-42.615467-12.501333-81.877333-41.506133-129.757866-44.603733-10.513067-0.682667-26.402133-1.211733-36.497067 0l-9.642667 0.443733-2.517333 3.6096c-33.058133 9.3952-65.160533 41.864533-68.932267 77.047467-7.031467-3.3792-3.9936-15.650133-4.0448-22.314667-0.392533-52.2496 4.053333-93.730133 18.1248-144.0512 8.891733-31.786667 34.909867-83.464533 38.570667-111.470933 3.498667-26.769067-1.3568-61.201067-0.110933-89.3184 2.2016-49.5616 9.659733-112.546133 21.2992-161.1776 11.656533-48.733867 32.110933-121.719467 96.622933-98.312534 53.486933 19.4048 108.8 67.063467 152.430933 103.04 7.7824 0.810667 15.9488 1.134933 23.739734 0.418134 21.230933-1.9456 47.0784-10.717867 68.8384-12.253867 47.547733-3.362133 115.601067-1.834667 162.304 4.3008 16.981333 2.2272 35.7888 7.7312 52.855466 10.811733 12.586667-3.208533 18.884267-15.470933 28.2368-23.125333 31.3344-25.642667 82.747733-64.469333 119.637334-79.0528 23.637333-9.352533 38.2976-15.9232 60.782933 0.170667 41.344 29.5936 60.1344 149.3504 65.160533 198.417066 4.829867 47.146667-1.783467 102.203733 3.950934 146.090667 3.268267 24.994133 26.077867 67.882667 34.517333 95.240533 14.139733 45.841067 22.485333 92.9792 26.427733 140.177067l-8.302933 54.587733zM148.182656 292.846933c41.386667-40.968533 83.805867-77.166933 133.819733-107.485866 1.390933-4.9664-3.464533-7.099733-6.084266-10.112-13.824-15.914667-54.5536-55.867733-73.642667-60.151467-5.1712-1.160533-10.410667-0.989867-15.6672-0.768-30.9248 13.2608-30.754133 50.141867-34.3552 79.1808-0.5632 4.573867-4.061867 7.645867-4.061867 8.098133v91.2384z m725.853867-4.053333V201.608533c0-0.896-3.054933-2.372267-3.370667-4.736-3.754667-27.963733-6.621867-60.6208-28.970667-80.512-6.4-3.2256-18.577067-2.884267-25.796266-1.262933-15.786667 3.549867-57.454933 46.1568-69.597867 60.16-2.5088 2.884267-7.509333 5.128533-6.084267 10.120533 23.637333 16.7936 50.4576 30.293333 72.823467 48.853334 17.211733 14.293333 31.812267 34.3296 48.836267 48.4864 4.104533 3.413333 5.1968 7.748267 12.168533 6.084266zM329.302656 350.276267c-11.221333 2.4576-27.810133 14.5152-30.404267 26.368-16.529067 75.485867 114.696533 101.469867 121.028267 35.703466 3.84-39.8848-55.031467-69.853867-90.624-62.071466z m332.629333 0.128c-17.834667 3.029333-50.8928 24.2944-54.8608 42.461866-18.978133 87.022933 110.711467 65.237333 120.439467 2.5088 2.7904-17.979733-15.5392-43.255467-33.928533-45.755733-8.576-1.160533-22.997333-0.6912-31.650134 0.776533zM249.567189 451.003733c-6.9888-1.245867-19.268267-5.828267-24.354133-10.129066-9.352533-7.9104-4.736-27.4944-20.241067-26.385067-1.4592 8.337067-6.5024 20.369067-12.032 26.504533-7.381333 8.192-20.4032 7.918933-24.4736 18.090667 22.280533 4.872533 28.270933 11.076267 35.652267 31.3088 1.979733 5.418667-2.312533 11.025067 6.912 9.250133 9.130667-9.710933 6.741333-21.521067 18.346667-30.318933 7.415467-5.623467 21.7344-5.853867 20.1984-18.321067z m523.093334 0c3.362133 11.972267 17.015467 10.453333 24.490666 18.082134 7.637333 7.799467 5.700267 19.626667 14.045867 26.513066 10.709333 3.2768 12.8256-21.461333 18.107733-26.4704 5.4784-5.188267 22.331733-5.307733 24.448-12.0576 3.328-10.615467-21.376-10.837333-26.461866-18.1248-3.9168-5.6064-3.754667-20.514133-12.066134-24.430933-8.046933-3.797333-9.224533 15.291733-12.194133 20.224-6.075733 10.103467-19.131733 14.626133-30.370133 16.273067zM405.803989 546.210133c0-44.928-36.420267-81.348267-81.348266-81.348266s-81.348267 36.420267-81.348267 81.348266 36.420267 81.348267 81.348267 81.348267 81.348267-36.420267 81.348266-81.348267z m375.406934-1.1264c0-45.1328-36.590933-81.723733-81.723734-81.723733s-81.723733 36.590933-81.723733 81.723733 36.590933 81.723733 81.723733 81.723734 81.723733-36.590933 81.723734-81.723734z" fill="#F8C17D" p-id="2299"></path><path d="M781.210923 545.083733c0 45.1328-36.590933 81.723733-81.723734 81.723734s-81.723733-36.590933-81.723733-81.723734S654.354389 463.36 699.487189 463.36s81.723733 36.590933 81.723734 81.723733z m-77.499734-57.6c-8.661333-1.058133-6.5792-0.6656-8.8576 5.205334-2.807467 7.2448-9.284267 31.6672-12.1344 34.645333-1.041067 1.092267-16.1792 9.326933-19.447466 10.939733-5.640533 2.781867-14.045867 4.6848-20.3776 6.007467-0.9984 10.350933-0.298667 6.528 5.8624 8.209067 36.829867 10.018133 39.0656 25.096533 46.8736 60.714666 4.599467 5.981867 7.125333-0.520533 8.849066-5.213866 11.648-31.726933 14.882133-52.701867 56.021334-55.620267 1.220267-14.481067-11.9296-10.606933-20.445867-14.020267-24.516267-9.8304-30.660267-26.359467-36.343467-50.8672z" fill="#523229" p-id="2300"></path><path d="M405.803989 546.210133c0 44.928-36.420267 81.348267-81.348266 81.348267s-81.348267-36.420267-81.348267-81.348267 36.420267-81.348267 81.348267-81.348266 81.348267 36.420267 81.348266 81.348266z m-22.4256-1.937066c-24.490667-5.623467-41.053867-11.869867-50.858666-36.334934-3.413333-8.516267 0.4608-21.666133-14.020267-20.445866 0.3072 7.458133-2.312533 14.626133-4.9408 21.418666-10.1632 26.24-18.193067 25.301333-42.581333 34.5856-5.930667 2.261333-6.2208 0.256-5.205334 8.866134 9.489067 0.1024 32.896 9.6256 38.570667 16.196266 5.3248 6.1696 9.898667 26.103467 13.3376 35.362134 1.988267 5.341867-2.3808 11.0592 6.8864 9.2672 5.358933-2.474667 12.2368-35.2512 20.266667-44.6208 8.2176-9.591467 32.392533-11.1872 38.545066-24.2944z" fill="#503128" p-id="2301"></path><path d="M148.182656 292.846933V201.608533c0-0.452267 3.498667-3.5328 4.061867-8.098133 3.601067-29.047467 3.4304-65.92 34.3552-79.1808 5.256533-0.213333 10.496-0.392533 15.6672 0.768 19.089067 4.283733 59.818667 44.2368 73.642666 60.151467 2.619733 3.012267 7.4752 5.154133 6.084267 10.112-50.013867 30.3104-92.433067 66.517333-133.819733 107.485866z" fill="#FAC5B5" p-id="2302"></path><path d="M874.036523 288.7936c-6.971733 1.664-8.064-2.6624-12.168534-6.084267-17.015467-14.165333-31.616-34.2016-48.836266-48.4864-22.357333-18.56-49.186133-32.0512-72.823467-48.853333-1.425067-4.992 3.575467-7.227733 6.084267-10.120533 12.142933-13.994667 53.8112-56.610133 69.597866-60.16 7.2192-1.621333 19.396267-1.962667 25.796267 1.262933 22.357333 19.8912 25.216 52.548267 28.970667 80.512 0.315733 2.363733 3.370667 3.84 3.370666 4.736v87.185067z" fill="#FAC6B7" p-id="2303"></path><path d="M661.931989 350.404267c8.6528-1.476267 23.074133-1.9456 31.650134-0.776534 18.389333 2.500267 36.718933 27.776 33.928533 45.755734-9.728 62.728533-139.4176 84.514133-120.439467-2.5088 3.959467-18.176 37.0176-39.432533 54.8608-42.461867z" fill="#F8EEDB" p-id="2304"></path><path d="M329.302656 350.276267c35.601067-7.7824 94.472533 22.186667 90.624 62.071466-6.340267 65.7664-137.565867 39.7824-121.028267-35.703466 2.594133-11.8528 19.182933-23.9104 30.404267-26.368z" fill="#F8EEDD" p-id="2305"></path><path d="M249.567189 451.003733c1.536 12.458667-12.782933 12.6976-20.1984 18.321067-11.605333 8.797867-9.216 20.616533-18.346666 30.318933-9.224533 1.774933-4.932267-3.831467-6.912-9.250133-7.381333-20.232533-13.371733-26.436267-35.652267-31.3088 4.0704-10.171733 17.092267-9.898667 24.4736-18.090667 5.5296-6.144 10.5728-18.167467 12.032-26.504533 15.5136-1.109333 10.888533 18.474667 20.241067 26.385067 5.085867 4.3008 17.365333 8.891733 24.354133 10.129066z" fill="#F7F1DB" p-id="2306"></path><path d="M772.660523 451.003733c11.2384-1.646933 24.2944-6.1696 30.370133-16.273066 2.9696-4.932267 4.1472-24.0128 12.194133-20.224 8.311467 3.9168 8.149333 18.833067 12.066134 24.430933 5.085867 7.278933 29.7984 7.5008 26.461866 18.1248-2.116267 6.749867-18.9696 6.869333-24.448 12.0576-5.290667 5.009067-7.3984 29.755733-18.107733 26.4704-8.354133-6.8864-6.408533-18.7136-14.045867-26.513067-7.466667-7.6288-21.128533-6.101333-24.490666-18.082133z" fill="#F5EFD8" p-id="2307"></path><path d="M719.950123 641.578667v2.107733c-10.453333 2.56-27.323733 3.669333-37.905067 1.3568-1.9968-0.4352-2.372267-3.396267-2.645333-3.464533 13.312-0.759467 27.357867 1.092267 40.5504 0z" fill="#FAE6D0" p-id="2308"></path><path d="M910.533589 592.9216c-6.6304-0.443733-13.602133-0.0768-20.2752 0-2.696533 0.034133-5.4272-0.145067-8.106666 0l2.389333-3.6096c7.808-0.913067 15.812267-0.913067 23.6032 0l2.389333 3.6096z" fill="#FACEB1" p-id="2309"></path><path d="M111.685589 592.9216c-0.682667 0.085333-7.918933 2.850133-12.168533 4.053333l2.517333-3.6096 9.642667-0.443733z" fill="#FAD9BF" p-id="2310"></path><path d="M703.711189 487.483733c5.674667 24.507733 11.8272 41.0368 36.343467 50.8672 8.516267 3.413333 21.666133-0.4608 20.445867 14.020267-41.1392 2.9184-44.373333 23.893333-56.021334 55.620267-1.723733 4.693333-4.2496 11.195733-8.849066 5.213866-7.808-35.618133-10.043733-50.705067-46.8736-60.714666-6.161067-1.672533-6.852267 2.141867-5.8624-8.209067 6.331733-1.322667 14.737067-3.2256 20.3776-6.007467 3.268267-1.6128 18.4064-9.847467 19.447466-10.939733 2.850133-2.978133 9.335467-27.400533 12.1344-34.645333 2.269867-5.870933 0.187733-6.263467 8.8576-5.205334z" fill="#F2EAD3" p-id="2311"></path><path d="M383.378389 544.273067c-6.152533 13.1072-30.327467 14.711467-38.545066 24.2944-8.029867 9.3696-14.907733 42.1376-20.266667 44.6208-9.275733 1.792-4.898133-3.925333-6.8864-9.2672-3.438933-9.250133-8.0128-29.192533-13.3376-35.362134-5.674667-6.570667-29.0816-16.085333-38.570667-16.196266-1.015467-8.610133-0.725333-6.6048 5.205334-8.866134 24.388267-9.2928 32.418133-8.354133 42.581333-34.5856 2.628267-6.792533 5.248-13.960533 4.9408-21.418666 14.481067-1.220267 10.606933 11.9296 14.020267 20.445866 9.8048 24.465067 26.368 30.711467 50.858666 36.334934z" fill="#F3ECD8" p-id="2312"></path><path d="M262.401323 697.463467c0 44.6976-36.232533 80.930133-80.930134 80.930133s-80.930133-36.232533-80.930133-80.930133 36.232533-80.930133 80.930133-80.930134 80.930133 36.232533 80.930134 80.930134z m-82.8416-51.208534c-19.1488 1.8176-34.56 11.921067-45.457067 27.869867-15.931733 23.330133-1.3824 47.342933 18.312533 62.574933 13.201067 10.2144 20.488533 12.475733 37.572267 9.5232 33.672533-5.828267 43.502933-35.157333 39.296-66.116266-2.773333-20.4032-30.788267-35.652267-49.723733-33.851734z" fill="#FACAAC" p-id="2313"></path><path d="M801.904256 650.5472c10.1376-10.052267 35.848533-14.993067 49.834667-13.013333 9.429333 1.339733 33.348267 18.397867 38.690133 26.180266 14.660267 21.367467 10.282667 58.88-10.231467 75.264-21.239467 16.955733-63.5136 13.277867-79.317333-10.043733-3.933867-5.8112-12.3904-26.2656-12.3136-32.631467 0.0768-6.237867 3.2512-10.709333 4.2752-16.298666 1.792-9.7536 0.128-20.599467 9.0624-29.457067z" fill="#FABD9C" p-id="2314"></path><path d="M565.795456 779.528533c-1.664 30.839467-37.1712 50.244267-66.184533 43.861334-14.276267-3.140267-37.1712-22.8352-39.296-37.853867-1.117867-7.927467 0.8448-5.0688 5.333333-6.818133 36.949333-14.327467 63.428267-17.058133 100.1472 0.802133z" fill="#F37759" p-id="2315"></path><path d="M179.559723 646.254933c18.926933-1.800533 46.9504 13.448533 49.723733 33.851734 4.206933 30.958933-5.632 60.288-39.296 66.116266-17.083733 2.961067-24.362667 0.6912-37.572267-9.5232-19.694933-15.232-34.244267-39.2448-18.312533-62.574933 10.897067-15.957333 26.3168-26.052267 45.457067-27.869867z" fill="#FBBC9A" p-id="2316"></path></svg>