<?xml version="1.0" standalone="no"?><!DOCTYPE svg PUBLIC "-//W3C//DTD SVG 1.1//EN" "http://www.w3.org/Graphics/SVG/1.1/DTD/svg11.dtd"><svg t="1766399910243" class="icon" viewBox="0 0 1024 1024" version="1.1" xmlns="http://www.w3.org/2000/svg" p-id="2614" xmlns:xlink="http://www.w3.org/1999/xlink" width="200" height="200"><path d="M165.436689 19.5584c28.5184-4.0704 68.650667 16.768 93.5936 30.941867 38.391467 21.819733 72.046933 51.3536 107.383467 76.586666l61.2864-10.9824c14.856533 3.003733 30.011733-3.1488 42.990933-3.831466 61.602133-3.2256 123.8784 3.643733 183.893333 14.728533 6.8864-0.2816 9.4976-7.4496 14.301867-11.042133 27.451733-20.539733 54.1952-42.692267 83.473067-60.612267 48.520533-29.704533 108.680533-60.424533 152.6016-6.016 39.5776 49.032533 57.736533 169.096533 61.098666 230.664533 1.851733 33.988267-4.078933 75.690667 0.136534 107.9296 3.157333 24.192 26.8544 70.289067 35.0976 98.176 52.7104 178.440533 17.493333 329.668267-145.578667 429.013334-203.118933 123.741867-518.152533 120.7552-714.282667-15.803734C1.502822 801.902933-24.523844 655.880533 19.661756 496.9216c8.490667-30.532267 35.396267-83.259733 38.690133-108.996267 5.026133-39.202133-2.679467-88.584533 0.136533-129.536 3.882667-56.541867 23.2192-166.1184 59.52-210.6368 11.451733-14.037333 29.2608-25.6 47.428267-28.194133zM29.594556 667.144533c4.522667 39.458133 10.683733 65.032533 28.817066 100.855467 3.336533 6.596267 6.997333 11.861333 10.8032 18.013867 46.848 75.630933 128.648533 124.253867 211.490134 154.120533 181.230933 65.339733 428.672 47.803733 588.0064-66.0224 55.082667-39.3472 118.417067-115.2256 122.624-185.344l7.364266-34.065067c2.269867-51.140267-5.905067-100.736-19.8656-149.742933-8.7552-30.711467-34.338133-82.850133-37.8624-109.824-3.5072-26.862933 1.288533-61.8752 0.093867-90.146133-2.824533-67.0208-15.7184-171.485867-51.1488-229.8112-16.6144-27.349333-36.821333-37.1712-68.002133-25.9072C768.000956 68.753067 711.160422 117.76 667.239356 153.992533l-5.410134 1.809067c-17.3824-3.524267-36.8128-8.584533-54.178133-10.88-83.6864-11.076267-168.968533-8.2688-251.656533 10.436267-43.093333-35.7888-94.976-80.247467-147.396267-101.265067-35.84-14.370133-56.661333-14.336-77.5936 21.085867-28.6976 48.5632-44.612267 148.676267-47.547733 204.5952-1.902933 36.292267 4.539733 80.699733 0.093866 115.362133-2.6368 20.565333-23.492267 61.704533-30.6432 84.625067-20.0704 64.324267-31.018667 120.379733-23.330133 187.392z" fill="#4A2A21" p-id="2615"></path><path d="M991.335356 688.759467c2.363733-39.424-19.566933-83.140267-61.2352-90.052267-0.733867-0.750933-0.631467-2.6368-2.269867-3.131733-1.5616-0.853333-3.345067-0.196267-4.932267-0.469334l-2.4832-3.089066c-2.705067-1.143467-5.572267-0.349867-8.328533-0.512-1.194667-0.0768-2.4064 0.034133-3.601067 0l-2.1248-3.208534c-9.3184-0.750933-18.833067-0.750933-28.168533 0l-2.1248 3.208534c-2.3808 0.128-4.829867-0.196267-7.202133 0-40.994133 3.396267-66.056533 21.435733-100.855467 36.0192-4.6592 1.954133-14.472533 6.0928-18.013867 7.202133-7.287467 2.286933-18.414933 2.756267-26.24 4.258133l-2.577066 2.944c-21.888-0.213333-40.482133 2.517333-61.2864-5.3504-36.4032-13.7728-59.741867-47.991467-97.0752-61.4144-33.237333-11.9552-79.36-9.088-111.8464 3.677867-45.056 17.706667-55.031467 50.9184-111.607467 63.086933-26.948267 2.312533-51.490133-2.432-76.663467-11.588266-7.074133-2.577067-14.250667-7.355733-20.590933-10.026667-24.055467-10.129067-45.2352-20.369067-72.0384-25.216-19.925333-3.601067-45.5168-6.272-65.988267-3.0208-1.698133 0.264533-2.1248 2.944-2.449066 3.0208-22.801067 5.512533-41.685333 16.298667-55.739734 36.113067-7.918933 11.170133-8.7296 25.198933-16.3072 35.925333-7.688533-67.012267 3.259733-123.067733 23.330134-187.392 7.150933-22.920533 28.0064-64.059733 30.6432-84.625067 4.437333-34.6624-1.9968-79.069867-0.093867-115.362133 2.926933-55.918933 18.850133-156.032 47.547733-204.5952 20.932267-35.421867 41.7536-35.456 77.5936-21.085867C261.027089 75.093333 312.909756 119.552 356.003089 155.3408c82.688-18.705067 167.9616-21.512533 251.656533-10.436267 17.365333 2.295467 36.795733 7.355733 54.178134 10.88l5.410133-1.809066c43.921067-36.232533 100.7616-85.239467 154.6752-104.721067 31.1808-11.264 51.387733-1.442133 68.002133 25.9072 35.4304 58.325333 48.324267 162.7904 51.1488 229.8112 1.194667 28.270933-3.6096 63.2832-0.093866 90.146133 3.524267 26.965333 29.1072 79.104 37.8624 109.824 13.960533 49.006933 22.144 98.594133 19.8656 149.742934l-7.364267 34.065066zM144.862822 292.539733c40.430933-41.5488 84.411733-75.067733 133.2736-106.282666l-26.948266-34.269867c-32.085333-24.669867-72.507733-68.599467-93.8496-7.261867-6.510933 18.705067-6.766933 37.1456-8.823467 56.0128-0.426667 3.899733-3.6608 6.749867-3.6608 7.150934v84.650666z m731.2128-3.6096V197.077333c0-0.7168-2.5856-2.065067-2.9184-4.283733-6.894933-45.661867-18.978133-104.8832-76.168533-64-5.376 3.84-15.044267 11.5968-20.036267 15.982933-6.417067 5.649067-35.874133 35.089067-34.1504 41.412267 20.983467 15.342933 44.1344 27.434667 64.682667 43.460267 20.829867 16.238933 37.640533 37.111467 57.787733 53.879466 3.643733 3.037867 4.616533 6.877867 10.8032 5.4016z m-545.032533 54.698667c-13.098667 2.3808-32.580267 14.779733-36.872533 27.972267-18.9952 58.3936 83.669333 101.2992 113.143466 59.1104 11.8528-16.964267 10.4192-38.7072-1.390933-55.236267-12.424533-17.390933-54.254933-35.601067-74.871467-31.8464z m338.6624 0.110933c-37.4528 5.0432-89.728 44.458667-60.253867 83.950934 39.825067 53.358933 146.688-13.482667 108.2112-64.981334-10.999467-14.72-30.208-21.3504-47.9488-18.961066z m110.2336 201.9328c0-43.690667-35.421867-79.112533-79.112533-79.112533s-79.112533 35.421867-79.112534 79.112533 35.421867 79.112533 79.112534 79.112534 79.112533-35.421867 79.112533-79.112534z m-381.269333 0.878934c0-43.451733-35.2256-78.677333-78.677334-78.677334s-78.677333 35.2256-78.677333 78.677334 35.2256 78.677333 78.677333 78.677333 78.677333-35.2256 78.677334-78.677333z" fill="#F7C17C" p-id="2616"></path><path d="M779.939089 545.672533c0 43.690667-35.421867 79.112533-79.112533 79.112534s-79.112533-35.421867-79.112534-79.112534 35.421867-79.112533 79.112534-79.112533 79.112533 35.421867 79.112533 79.112533z m-89.668267-33.7664c0-13.4656-10.922667-24.388267-24.388266-24.388266s-24.388267 10.922667-24.388267 24.388266 10.922667 24.388267 24.388267 24.388267 24.388267-10.922667 24.388266-24.388267z" fill="#4F2F27" p-id="2617"></path><path d="M398.669756 546.551467c0 43.451733-35.2256 78.677333-78.677334 78.677333s-78.677333-35.2256-78.677333-78.677333 35.2256-78.677333 78.677333-78.677334 78.677333 35.2256 78.677334 78.677334z m-20.189867-34.304c0-13.6448-11.0592-24.704-24.704-24.704s-24.704 11.0592-24.704 24.704 11.0592 24.704 24.704 24.704 24.704-11.0592 24.704-24.704z" fill="#4F2F26" p-id="2618"></path><path d="M144.862822 292.539733v-84.650666c0-0.401067 3.234133-3.2512 3.6608-7.150934 2.056533-18.875733 2.312533-37.316267 8.823467-56.0128 21.341867-61.3376 61.7728-17.408 93.8496 7.261867l26.948267 34.269867c-48.861867 31.214933-92.842667 64.733867-133.2736 106.282666z" fill="#F9C4B1" p-id="2619"></path><path d="M876.075622 288.930133c-6.186667 1.476267-7.159467-2.363733-10.8032-5.4016-20.1472-16.759467-36.949333-37.632-57.787733-53.879466-20.548267-16.017067-43.6992-28.117333-64.682667-43.460267-1.732267-6.3232 27.7248-35.7632 34.1504-41.412267 4.992-4.394667 14.660267-12.142933 20.036267-15.982933 57.198933-40.874667 69.2736 18.338133 76.168533 64 0.3328 2.2272 2.9184 3.566933 2.9184 4.283733v91.8528z" fill="#F9C6B5" p-id="2620"></path><path d="M331.043089 343.6288c20.616533-3.754667 62.455467 14.455467 74.871467 31.8464 11.810133 16.529067 13.243733 38.272 1.390933 55.236267-29.474133 42.197333-132.138667-0.708267-113.143467-59.1104 4.292267-13.192533 23.773867-25.591467 36.872534-27.972267zM669.705489 343.739733c17.749333-2.389333 36.957867 4.241067 47.9488 18.961067 38.4768 51.498667-68.386133 118.340267-108.2112 64.981333-29.474133-39.492267 22.8096-78.907733 60.253867-83.950933z" fill="#F7EDDB" p-id="2621"></path><path d="M665.882556 511.906133m-24.388267 0a24.388267 24.388267 0 1 0 48.776533 0 24.388267 24.388267 0 1 0-48.776533 0Z" fill="#F3ECD9" p-id="2622"></path><path d="M353.775889 512.247467m-24.704 0a24.704 24.704 0 1 0 49.408 0 24.704 24.704 0 1 0-49.408 0Z" fill="#F2E9D6" p-id="2623"></path><path d="M721.187089 641.937067l-10.743467 37.879466c-15.6416 127.778133 104.482133 183.978667 209.9968 127.146667 24.789333-13.346133 43.938133-46.506667 48.605867-73.864533 3.1744-18.594133-1.390933-70.664533-7.278933-88.593067-4.974933-15.1296-20.471467-34.466133-31.650134-45.789867 41.668267 6.912 63.598933 50.628267 61.2352 90.052267-4.206933 70.1184-67.549867 145.9968-122.624 185.344-159.325867 113.826133-406.766933 131.370667-588.0064 66.0224-82.833067-29.866667-164.642133-78.481067-211.490133-154.120533-1.4336-11.0592 2.961067-7.543467 7.2704-1.8688 10.973867 14.455467 39.261867 29.064533 57.514667 36.138666 35.8656 13.909333 79.607467 7.918933 114.286933-8.285866 48.955733-22.877867 70.698667-64.059733 65.792-117.768534-0.426667-4.6592-2.961067-21.085867-4.027733-24.789333-1.672533-5.768533-11.170133-11.946667-6.7072-23.9104 9.941333-0.8704 21.1456 1.237333 30.839466 0.0512 4.548267-0.554667 4.881067-3.592533 5.188267-3.6608 56.576-12.168533 66.56-45.380267 111.607467-63.086933 32.4864-12.765867 78.609067-15.633067 111.8464-3.677867 37.333333 13.422933 60.672 47.650133 97.0752 61.4144 20.804267 7.867733 39.3984 5.137067 61.2864 5.3504zM485.940156 595.797333c-12.014933 2.048-35.259733 12.629333-41.608534 23.227734-21.649067 36.164267 24.704 66.9184 56.0128 72.644266 35.370667 6.459733 102.272-31.633067 78.532267-71.313066-15.291733-25.565867-66.423467-29.0816-92.936533-24.558934z m142.088533 97.066667c-1.6128 1.501867-4.795733 15.3344-6.980267 20.0192-6.3744 13.636267-11.3152 19.208533-25.796266 24.6272-15.684267 5.870933-27.793067 5.896533-43.477334 0-14.916267-5.6064-25.890133-18.9184-41.301333-23.6544-21.230933 10.4704-35.712 26.478933-61.371733 28.9536-16.0768 1.553067-44.416-12.945067-50.440534-28.689067-4.846933-12.672-2.414933-31.701333-23.3728-23.6544-14.72 7.424-4.292267 36.386133 3.6352 46.993067 32.853333 43.9552 89.207467 41.378133 131.515734 12.347733 29.832533 17.211733 57.6256 28.817067 92.0064 16.529067 27.067733-9.6768 56.797867-39.7568 48.682666-70.5536l-11.588266-6.570667c-1.6896-0.264533-10.683733 2.875733-11.52 3.652267z" fill="#F9EFDC" p-id="2624"></path><path d="M170.078822 595.106133c-4.104533 11.6736-17.28 5.7344-26.453333 7.773867-31.4112 6.9888-56.1408 48.349867-62.762667 77.713067-3.601067 15.9744-3.677867 32.810667-0.1536 48.913066 1.988267 9.096533 8.968533 28.910933 15.402667 35.0208 31.035733 29.474133 103.2704 39.364267 140.142933 17.425067 11.630933-6.920533 33.7152-32.247467 37.632-45.2096 5.632-18.602667 4.727467-41.873067 0.546134-60.484267-4.625067-20.616533-12.3904-27.776-26.862934-41.693866-2.653867-2.551467-7.1424-2.7136-8.413866-4.061867-1.621333-1.7152-8.516267-13.5424 2.961066-10.180267 6.340267 2.670933 13.5168 7.4496 20.590934 10.026667 25.181867 9.156267 49.7152 13.9008 76.663466 11.588267-0.3072 0.068267-0.64 3.106133-5.188266 3.6608-9.685333 1.186133-20.898133-0.930133-30.839467-0.0512-4.462933 11.963733 5.0432 18.141867 6.7072 23.9104 1.066667 3.694933 3.601067 20.130133 4.027733 24.789333 4.906667 53.700267-16.836267 94.890667-65.792 117.768533-34.679467 16.2048-78.421333 22.1952-114.286933 8.285867-18.2528-7.074133-46.532267-21.6832-57.514667-36.138667-4.309333-5.674667-8.704-9.1904-7.2704 1.8688-3.8144-6.152533-7.466667-11.4176-10.8032-18.013866 10.2656-7.5264-2.474667-18.747733-3.601066-27.016534-4.283733-31.428267 4.770133-85.077333 19.968-113.314133 8.055467-14.967467 17.0752-15.9744 28.7232-25.309867 5.649067-4.5312 9.2672-8.584533-1.860267-7.261866 0.324267-0.0768 0.750933-2.756267 2.449067-3.0208 20.471467-3.242667 46.062933-0.580267 65.988266 3.0208z" fill="#F9E2CA" p-id="2625"></path><path d="M101.641489 595.106133c11.127467-1.322667 7.509333 2.7392 1.860267 7.261867-11.639467 9.335467-20.667733 10.3424-28.7232 25.309867-15.197867 28.2368-24.251733 81.885867-19.968 113.314133 1.1264 8.2688 13.866667 19.490133 3.601066 27.016533-18.133333-35.822933-24.2944-61.397333-28.817066-100.855466 7.5776-10.7264 8.379733-24.7552 16.3072-35.925334 14.0544-19.8144 32.938667-30.600533 55.739733-36.113066z" fill="#F7EAD7" p-id="2626"></path><path d="M242.117222 620.322133c-11.477333-3.362133-4.5824 8.456533-2.961066 10.180267 1.271467 1.348267 5.768533 1.5104 8.413866 4.061867 14.472533 13.917867 22.229333 21.0688 26.862934 41.693866 4.181333 18.619733 5.085867 41.8816-0.546134 60.484267-3.925333 12.962133-26.001067 38.289067-37.632 45.2096-36.872533 21.9392-109.1072 12.049067-140.142933-17.425067-6.434133-6.109867-13.4144-25.924267-15.402667-35.0208-3.515733-16.1024-3.447467-32.9472 0.1536-48.913066 6.6304-29.3632 31.351467-70.724267 62.762667-77.713067 9.1648-2.039467 22.340267 3.908267 26.453333-7.773867 26.8032 4.846933 47.982933 15.086933 72.0384 25.216z m-50.432 140.475734c25.0368-1.015467 56.354133-22.203733 57.796267-48.776534 0.273067-5.102933-2.798933-8.285867-3.054933-11.3152-0.324267-3.7888 2.807467-6.877867 2.824533-10.171733 0.119467-19.490133-43.938133-65.109333-62.9504-65.3056-9.147733 4.224-19.054933 0.9216-28.245333 2.884267-13.696 2.9184-22.007467 16.955733-34.167467 21.649066-4.027733 17.058133-17.578667 34.005333-17.237333 51.601067 0.418133 22.161067 21.879467 62.045867 49.015466 59.434667 0.4608 1.0752 9.4976 12.0832 10.7008 12.706133 10.948267 5.691733 25.540267-0.136533 25.3184-12.706133z" fill="#F9D1B5" p-id="2627"></path><path d="M868.873489 591.505067l27.0848 17.9456c32.145067 24.763733 56.9088 75.8528 47.9744 116.548266-0.520533 2.3808-10.453333 24.900267-12.049067 27.579734-2.235733 3.754667-19.336533 20.411733-23.4752 23.3472-3.703467 2.619733-32.256 18.798933-34.705066 19.328-7.3728 1.578667-32.170667 4.8384-39.185067 4.352-84.8128-5.896533-123.255467-103.918933-64.6912-165.8624 5.009067-5.2992 10.052267-8.021333-1.800533-7.202134 34.798933-14.592 59.861333-32.631467 100.855466-36.0192z m-7.210667 183.7056c1.1776 0.059733 2.423467 0.059733 3.601067 0 16.827733-0.7936 33.186133-9.796267 42.7264-23.9104 25.386667-37.5552 19.3024-90.461867-15.650133-120.234667-28.637867-24.3968-57.5744-28.194133-88.226134-5.256533-64.392533 48.187733-51.805867 143.0016 31.197867 155.886933l26.3424-6.493867z" fill="#F9D5BA" p-id="2628"></path><path d="M908.493756 591.505067c1.194667 0.034133 2.4064-0.0768 3.601066 0l2.235734 3.208533c2.756267 1.152 6.0928-0.034133 8.567466 0.392533 1.5872 0.2816 3.370667-0.375467 4.932267 0.469334 1.6384 0.494933 1.536 2.3808 2.269867 3.131733 11.178667 11.332267 26.6752 30.660267 31.650133 45.789867 5.896533 17.928533 10.453333 69.998933 7.278933 88.593066-4.667733 27.357867-23.816533 60.5184-48.605866 73.864534-105.514667 56.823467-225.6384 0.631467-209.9968-127.146667l10.743466-37.879467 2.577067-2.944c7.816533-1.501867 18.952533-1.9712 26.24-4.258133 0.1792 8.558933-7.790933 11.810133-11.588267 19.029333-30.7968 58.555733 1.322667 134.8864 64.5632 153.122134 46.609067 13.44 101.111467-1.911467 134.4768-36.932267 32.4096-34.013867 19.217067-117.870933-10.888533-151.483733-10.683733-11.9296-26.333867-15.189333-36.078933-26.9568 5.981867 0 12.032-0.1792 18.013866 0z" fill="#F8E3CC" p-id="2629"></path><path d="M876.075622 591.505067c4.753067-0.264533 9.634133 0 14.404267 0 9.7536 11.767467 25.3952 15.0272 36.078933 26.9568 30.114133 33.6128 43.298133 117.469867 10.888534 151.483733-33.365333 35.0208-87.867733 50.372267-134.4768 36.932267-63.240533-18.235733-95.351467-94.5664-64.5632-153.122134 3.797333-7.2192 11.758933-10.478933 11.588266-19.029333 3.5328-1.109333 13.354667-5.256533 18.013867-7.202133 11.8528-0.810667 6.818133 1.902933 1.800533 7.202133-58.564267 61.943467-20.1216 159.957333 64.6912 165.8624 7.005867 0.4864 31.812267-2.7648 39.185067-4.352 2.449067-0.529067 31.0016-16.699733 34.705067-19.328 4.138667-2.935467 21.239467-19.592533 23.4752-23.3472 1.595733-2.670933 11.52-25.1904 12.049066-27.579733 8.9344-40.695467-15.829333-91.784533-47.9744-116.548267l-27.0848-17.9456c2.372267-0.196267 4.821333 0.128 7.202134 0z" fill="#F9E1CA" p-id="2630"></path><path d="M908.493756 591.505067c-5.973333-0.1792-12.023467 0-18.013867 0-4.770133 0-9.6512-0.264533-14.404267 0l2.1248-3.208534c9.344-0.750933 18.850133-0.750933 28.168534 0l2.1248 3.208534z" fill="#F9D5BA" p-id="2631"></path><path d="M922.898022 595.106133c-2.474667-0.4352-5.8112 0.759467-8.567466-0.392533l-2.235734-3.208533c2.747733 0.170667 5.614933-0.631467 8.328534 0.512l2.4832 3.089066z" fill="#F9E1CA" p-id="2632"></path><path d="M485.940156 595.797333c26.513067-4.522667 77.6448-1.006933 92.936533 24.558934 23.739733 39.688533-43.1616 77.781333-78.532267 71.313066-31.3088-5.717333-77.661867-36.48-56.0128-72.644266 6.340267-10.5984 29.5936-21.179733 41.608534-23.227734z" fill="#502F27" p-id="2633"></path><path d="M628.028689 692.864c0.836267-0.776533 9.8304-3.9168 11.52-3.652267l11.588267 6.570667c8.1152 30.7968-21.614933 60.8768-48.682667 70.5536-34.389333 12.288-62.173867 0.682667-92.0064-16.529067-42.308267 29.021867-98.6624 31.607467-131.515733-12.347733-7.927467-10.606933-18.3552-39.569067-3.6352-46.993067 20.957867-8.055467 18.525867 10.9824 23.3728 23.6544 6.024533 15.744 34.363733 30.242133 50.440533 28.689067 25.659733-2.474667 40.132267-18.4832 61.371733-28.9536 15.402667 4.736 26.376533 18.048 41.301334 23.6544 15.684267 5.896533 27.793067 5.870933 43.477333 0 14.481067-5.418667 19.421867-10.990933 25.796267-24.6272 2.193067-4.6848 5.376-18.517333 6.980266-20.0192z" fill="#513027" p-id="2634"></path><path d="M191.685222 760.797867c-0.162133-9.207467-5.469867-17.664-3.592533-30.626134 1.979733-13.661867 19.6608-32.622933-5.384533-41.6-19.387733 0.0768-30.199467 32.955733-30.882134 48.750934-0.170667 3.925333 2.5088 20.334933 3.84 23.466666-27.136 2.6112-48.597333-37.282133-49.015466-59.434666-0.3328-17.595733 13.2096-34.551467 17.237333-51.601067 12.151467-4.693333 20.462933-18.722133 34.167467-21.649067 9.1904-1.962667 19.106133 1.339733 28.245333-2.884266 19.012267 0.196267 63.069867 45.824 62.9504 65.3056-0.017067 3.293867-3.1488 6.391467-2.824533 10.171733 0.256 3.029333 3.328 6.212267 3.054933 11.3152-1.442133 26.5728-32.759467 47.761067-57.796267 48.776533z" fill="#FAC2A1" p-id="2635"></path><path d="M191.685222 760.797867c0.213333 12.578133-14.370133 18.4064-25.3184 12.706133-1.2032-0.622933-10.24-11.630933-10.7008-12.706133-1.3312-3.131733-4.010667-19.541333-3.84-23.466667 0.682667-15.7952 11.4944-48.674133 30.882134-48.750933 25.0368 8.977067 7.355733 27.938133 5.384533 41.6-1.877333 12.962133 3.438933 21.418667 3.592533 30.626133z" fill="#F7A282" p-id="2636"></path><path d="M865.263889 775.210667c1.928533-6.775467 9.719467-15.470933 10.8032-21.614934 6.442667-8.482133 15.2576-15.232 19.874133-25.147733 9.821867-21.0944 6.7072-59.221333-10.743466-75.835733-6.237867-5.9392-31.6672-20.078933-39.7312-20.1728-2.858667-0.034133-18.551467 1.988267-21.188267 2.7392-1.117867 0.315733-16.341333 11.9296-18.517333 13.9008-37.486933 33.9712-22.161067 108.228267 34.286933 108.1344-0.494933 2.645333-0.3328 13.730133 0.1792 14.225066 7.645867 2.944 13.397333 3.387733 21.4272 3.7888l-26.3424 6.493867c-83.003733-12.893867-95.598933-107.707733-31.197867-155.886933 30.651733-22.9376 59.588267-19.1488 88.226134 5.256533 34.952533 29.7728 41.0368 82.679467 15.650133 120.234667-9.540267 14.114133-25.898667 23.1168-42.7264 23.9104z" fill="#F9CEAF" p-id="2637"></path><path d="M876.075622 753.595733c-1.092267 6.135467-8.874667 14.839467-10.8032 21.614934-1.1776 0.059733-2.423467 0.059733-3.601066 0-8.0384-0.401067-13.781333-0.8448-21.4272-3.7888-0.520533-0.4864-0.674133-11.579733-0.1792-14.225067 0.059733-0.315733 3.208533-0.878933 3.6608-5.1968 2.141867-20.488533-4.164267-32.375467-11.016534-50.696533-0.068267-5.870933 7.210667-11.912533 12.680534-12.663467 28.1088-3.8656 34.286933 44.672 30.6944 64.955733z" fill="#F59879" p-id="2638"></path><path d="M876.075622 753.595733c3.592533-20.283733-2.5856-68.821333-30.6944-64.955733-5.4784 0.750933-12.757333 6.784-12.680533 12.663467 6.852267 18.321067 13.1584 30.208 11.016533 50.696533-0.452267 4.317867-3.601067 4.8896-3.6608 5.1968-56.448 0.093867-71.7824-74.1632-34.286933-108.1344 2.176-1.9712 17.408-13.585067 18.517333-13.9008 2.6368-0.7424 18.338133-2.773333 21.188267-2.7392 8.064 0.1024 33.493333 14.2336 39.7312 20.1728 17.450667 16.6144 20.565333 54.741333 10.743467 75.835733-4.616533 9.915733-13.431467 16.6656-19.874134 25.147734z" fill="#FAC0A0" p-id="2639"></path></svg>