<?xml version="1.0" standalone="no"?><!DOCTYPE svg PUBLIC "-//W3C//DTD SVG 1.1//EN" "http://www.w3.org/Graphics/SVG/1.1/DTD/svg11.dtd"><svg t="1766399987351" class="icon" viewBox="0 0 1024 1024" version="1.1" xmlns="http://www.w3.org/2000/svg" p-id="2289" xmlns:xlink="http://www.w3.org/1999/xlink" width="200" height="200"><path d="M169.566336 15.300267c6.442667-0.913067 20.104533 2.005333 27.323733 3.729066 45.696 10.9056 106.939733 57.1136 145.143467 85.768534 9.326933 6.997333 13.713067 18.568533 28.808533 18.397866 9.531733-0.110933 25.949867-6.203733 36.130134-7.441066 56.2432-6.852267 120.149333-9.668267 176.648533-3.601067 18.423467 1.979733 39.8592 8.8576 57.864533 10.666667 4.795733 0.477867 9.6512 0.196267 14.464 0.162133 6.024533-0.896 33.1008-27.733333 41.540267-34.2016 34.0224-26.052267 100.343467-69.742933 142.446933-74.052267 38.869333-3.976533 68.232533 33.288533 82.961067 64.8192 23.7056 50.7648 38.126933 137.966933 41.361067 193.152 2.167467 37.0432-4.7872 84.189867 0.0768 118.9888 3.899733 27.895467 33.3568 86.434133 42.4192 119.936 46.498133 171.818667 0.145067 314.094933-153.0112 408.072534-188.305067 115.541333-468.736 118.8608-662.749867 14.429866C16.461269 840.200533-32.485931 685.7472 19.925803 497.211733c8.4992-30.583467 35.447467-83.396267 38.749866-109.175466 5.1712-40.3456-2.756267-91.2128 0.136534-133.358934 2.816-41.053867 11.042133-88.866133 22.4512-129.083733 13.0816-46.139733 34.372267-102.664533 88.302933-110.2848zM29.875669 671.317333c5.034667 40.482133 10.9312 61.166933 28.859734 97.416534 88.533333 178.9952 361.6256 232.388267 542.933333 209.194666 124.501333-15.9232 277.102933-76.578133 348.228267-183.944533 18.824533-28.407467 47.735467-84.676267 43.298133-119.0656 6.254933-3.003733 3.549867-13.9264 3.601067-19.857067 0.418133-55.816533-4.343467-96.238933-19.7376-149.819733-8.439467-29.380267-34.7392-81.5616-37.922134-106.3936-3.882667-30.336 1.595733-69.307733 0.093867-101.12-2.517333-53.3504-12.842667-131.285333-30.677333-182.186667-5.205333-14.848-21.1456-49.979733-31.5648-60.4416-3.933867-3.950933-28.040533-15.197867-33.501867-15.172266-6.929067 0.042667-30.3104 9.096533-37.956267 12.561066-37.845333 17.134933-82.116267 50.2272-115.242666 75.9808-10.231467 7.953067-16.9472 21.034667-30.9248 23.483734L569.429803 137.173333c-60.296533-0.4352-117.922133-1.373867-176.8192 7.5008-8.789333 1.322667-25.002667 7.765333-32.4864 7.278934-12.091733-0.785067-21.888-16.452267-30.9248-23.483734-34.6624-26.9568-83.114667-62.3872-123.605334-78.4384-45.201067-17.928533-66.414933-0.733867-83.754666 40.3456-22.8864 54.229333-35.072 134.929067-37.981867 192.9216-1.7664 35.114667 4.462933 78.506667 0.093867 111.940267-3.396267 26.0352-26.7008 72.832-35.1488 101.947733-17.501867 60.322133-26.692267 111.5136-18.909867 174.114134z" fill="#4A2A22" p-id="2290"></path><path d="M29.875669 671.317333c-7.7824-62.600533 1.399467-113.800533 18.909867-174.114133 8.448-29.115733 31.752533-75.912533 35.1488-101.947733 4.360533-33.4336-1.860267-76.8256-0.093867-111.940267 2.909867-57.992533 15.095467-138.692267 37.981867-192.9216 17.339733-41.088 38.5536-58.274133 83.754667-40.3456 40.482133 16.059733 88.9344 51.4816 123.605333 78.4384 9.0368 7.031467 18.8416 22.698667 30.9248 23.483733 7.492267 0.4864 23.7056-5.956267 32.4864-7.278933 58.9056-8.866133 116.522667-7.936 176.8192-7.5008l89.9328 14.779733c13.9776-2.449067 20.701867-15.5392 30.9248-23.483733 33.1264-25.745067 77.397333-58.837333 115.242667-75.9808 7.645867-3.464533 31.0272-12.5184 37.956266-12.561067 5.461333-0.034133 29.576533 11.221333 33.501867 15.172267 10.4192 10.461867 26.359467 45.585067 31.5648 60.4416 17.8432 50.901333 28.16 128.8448 30.677333 182.186667 1.501867 31.812267-3.985067 70.784-0.093866 101.12 3.182933 24.832 29.482667 77.013333 37.922133 106.3936 15.394133 53.5808 20.155733 94.0032 19.7376 149.819733-0.042667 5.922133 2.653867 16.8448-3.601067 19.857067-4.8128-37.2736-38.289067-74.282667-75.767466-79.377067-3.012267-6.263467-13.9264-3.549867-19.857067-3.601067-55.176533-0.4864-80.7936 15.8976-128.068267 36.0704-25.992533 11.093333-54.528 19.370667-82.986666 18.039467-60.322133-11.639467-71.569067-48.1536-119.005867-66.798933-12.509867-4.9152-43.784533-12.535467-55.978667-12.544-3.6608 0-7.202133 3.234133-10.9056 3.515733-34.705067 2.670933-56.482133 9.386667-84.548266 30.882133-33.570133 25.719467-34.372267 33.655467-79.530667 44.945067-9.966933-0.674133-20.778667 1.058133-30.583467-0.085333-7.338667-0.853333-35.8144-7.714133-41.5744-10.734934-43.511467-22.8352-84.0704-43.810133-135.287466-43.2896-5.9392 0.059733-16.8448-2.6624-19.857067 3.601067-25.531733 1.416533-51.882667 19.84-64.375467 42.0608-6.212267 11.050667-8.2176 23.253333-15.0016 33.706667z m115.456-382.4384c6.203733 1.4848 7.168-2.372267 10.820267-5.410133 14.481067-12.0576 27.0848-29.175467 41.4208-41.565867 23.159467-20.010667 49.476267-35.063467 75.400533-50.875733 10.069333-6.144 6.528-10.555733 0.4608-17.621333-15.863467-18.449067-51.217067-52.462933-73.787733-59.682134-35.4048-11.3408-46.446933 43.6992-50.6368 68.795734-0.7424 4.471467-3.677867 20.4544-3.677867 21.5808v84.7872z m728.797867 0V196.872533c0-0.802133-2.7136-2.107733-2.9952-4.215466-5.649067-42.0352-16.733867-107.7504-72.6784-67.848534-6.2208 4.437333-19.5328 15.965867-25.437867 21.469867-12.040533 11.2384-21.546667 23.9104-32.366933 36.164267 0.042667 5.009067 33.143467 20.864 39.586133 25.344 31.3088 21.751467 54.212267 51.677867 83.063467 75.682133 3.652267 3.037867 4.625067 6.894933 10.820267 5.410133z m-553.301333 58.24c-10.385067 3.0208-22.442667 19.336533-23.9616 30.1568-11.400533 81.3056 137.130667 100.4032 118.468266 15.018667-2.286933-10.453333-14.421333-24.789333-23.355733-30.762667-4.4032-2.944-24.721067-13.405867-28.9536-14.336-7.04-1.544533-35.848533-1.92-42.1888-0.0768z m335.598933 0.059734c-9.480533 2.116267-27.264 12.6208-34.935467 19.182933-42.8544 36.718933-15.470933 87.202133 37.879467 81.1776 36.360533-4.104533 71.150933-34.210133 62.634667-73.275733-5.8112-26.641067-42.922667-32.145067-65.578667-27.0848zM373.171669 580.573867l18.909867 3.8144c16.187733-11.477333 12.689067-26.402133 7.697067-43.0336-16.238933-54.1696-72.3456-78.762667-125.482667-63.9744-40.1408 11.170133-70.075733 52.334933-64.1024 94.805333 1.877333 13.346133 22.7584 17.527467 30.8224 9.0112 5.768533-6.0928 11.323733-25.0368 19.712-34.4064 36.9664-41.2928 100.599467-17.954133 112.443733 33.783467z m435.498667 0.0256c9.582933-9.5744 2.346667-37.128533-2.363733-48.904534-31.650133-79.044267-147.396267-76.987733-181.888-3.6608-10.666667 22.673067-14.574933 70.186667 21.879466 52.539734 13.602133-52.522667 80.682667-76.219733 116.0704-30.190934 5.666133 7.3728 14.651733 29.1072 21.461334 32.648534 5.947733 3.089067 20.727467 1.6896 24.849066-2.432z" fill="#F7C17C" p-id="2291"></path><path d="M145.331669 288.878933v-84.7872c0-1.1264 2.926933-17.1008 3.677867-21.5808 4.189867-25.096533 15.232-80.128 50.6368-68.795733 22.570667 7.227733 57.9328 41.233067 73.787733 59.682133 6.075733 7.0656 9.608533 11.477333-0.4608 17.621334-25.915733 15.8208-52.232533 30.8736-75.400533 50.875733-14.336 12.381867-26.939733 29.508267-41.4208 41.565867-3.652267 3.037867-4.625067 6.894933-10.820267 5.410133z" fill="#F9C4B3" p-id="2292"></path><path d="M874.129536 288.878933c-6.203733 1.4848-7.168-2.372267-10.820267-5.410133-28.8512-24.0128-51.754667-53.930667-83.063466-75.682133-6.442667-4.471467-39.543467-20.334933-39.586134-25.344 10.820267-12.253867 20.3264-24.925867 32.366934-36.164267 5.896533-5.504 19.217067-17.032533 25.437866-21.469867 55.944533-39.901867 67.029333 25.813333 72.6784 67.848534 0.2816 2.107733 2.9952 3.421867 2.9952 4.215466v92.0064z" fill="#F9C6B4" p-id="2293"></path><path d="M808.670336 580.599467c-4.1216 4.113067-18.901333 5.521067-24.849067 2.432-6.818133-3.541333-15.7952-25.275733-21.461333-32.648534-35.3792-46.0288-102.459733-22.331733-116.0704 30.190934-36.4544 17.655467-32.546133-29.858133-21.879467-52.539734 34.491733-73.326933 150.237867-75.374933 181.888 3.6608 4.718933 11.776 11.946667 39.330133 2.363734 48.904534z" fill="#4F2F27" p-id="2294"></path><path d="M373.171669 580.573867c-11.844267-51.7376-75.477333-75.076267-112.443733-33.783467-8.388267 9.3696-13.943467 28.305067-19.712 34.4064-8.064 8.5248-28.945067 4.334933-30.8224-9.0112-5.973333-42.4704 23.970133-83.6352 64.1024-94.805333 53.128533-14.788267 109.243733 9.8048 125.482667 63.9744 4.983467 16.631467 8.490667 31.5648-7.697067 43.0336l-18.909867-3.8144z" fill="#502F27" p-id="2295"></path><path d="M656.427136 347.178667c22.656-5.060267 59.767467 0.443733 65.578667 27.0848 8.516267 39.0656-26.274133 69.1712-62.634667 73.275733-53.3504 6.024533-80.733867-44.458667-37.879467-81.1776 7.671467-6.570667 25.454933-17.066667 34.935467-19.182933zM320.828203 347.118933c6.340267-1.8432 35.1488-1.476267 42.1888 0.0768 4.232533 0.930133 24.5504 11.400533 28.9536 14.336 8.942933 5.973333 21.077333 20.309333 23.355733 30.762667 18.6624 85.384533-129.8688 66.286933-118.468267-15.018667 1.518933-10.820267 13.576533-27.136 23.9616-30.1568z" fill="#F7EEDB" p-id="2296"></path><path d="M686.524203 646.0672c0.315733 0.059733 0.622933 3.089067 5.205333 3.6608 7.483733 0.9472 15.982933-0.7168 23.6544-0.0512 0.315733 9.386667-4.573867 17.9712-5.717333 27.0848-0.571733 4.5312-1.442133 16.162133-1.664 21.461333-1.92 46.344533 14.549333 96.6144 56.661333 120.448 23.5008 13.303467 45.508267 13.4656 71.492267 15.069867 3.669333 0.2304 7.210667 3.498667 10.914133 3.498667 5.239467 0 31.829333-6.587733 38.007467-8.8576 14.242133-5.2224 27.844267-19.652267 41.9072-26.641067l22.903466-7.7568c-71.125333 107.357867-223.726933 168.0128-348.228266 183.944533-181.307733 23.1936-454.4-30.199467-542.933334-209.194666-0.7936-11.784533 1.954133-7.7056 6.647467-1.2288 9.3696 12.919467 19.063467 39.1936 32.981333 46.395733 4.590933 2.3808 10.0608 1.297067 14.6432 3.396267 8.635733 3.968 23.3728 14.1056 31.104 15.7952 19.234133 4.206933 55.227733 4.130133 74.496-0.093867 15.470933-3.387733 39.168-14.190933 51.2512-24.516267 16.196267-13.824 39.6288-49.314133 41.5744-70.272 1.28-13.7984 1.339733-40.5504-0.2304-54.178133-0.750933-6.562133-10.530133-31.061333-7.133866-34.3552 8.746667-0.8704 18.850133 1.245867 27.298133 0.0768 4.846933-0.674133 4.872533-3.6096 5.179733-3.6864 45.1584-11.2896 45.960533-19.2256 79.530667-44.945067 28.066133-21.504 49.8432-28.2112 84.548267-30.882133 3.703467-0.2816 7.2448-3.515733 10.9056-3.515733 12.194133 0 43.460267 7.6288 55.978666 12.544 47.445333 18.645333 58.683733 55.159467 119.005867 66.798933z m-192.247467-49.732267c-36.753067 4.462933-76.245333 30.813867-45.943467 69.649067 16.9984 21.7856 54.007467 30.788267 80.554667 26.2912 19.157333-3.242667 50.0736-23.842133 53.000533-44.3904 6.493867-45.6448-53.290667-55.714133-87.6032-51.541333z m159.214933 129.646934l-22.749866-7.901867-245.4784 0.145067c-17.2032 4.027733-25.207467 16.768-23.389867 34.193066 14.165333 135.7824 186.461867 184.004267 268.637867 73.949867 12.731733-17.0496 39.04-84.309333 22.980266-100.386133z" fill="#F8EFDC" p-id="2297"></path><path d="M917.427669 595.549867c37.4784 5.0944 70.954667 42.094933 75.767467 79.377066 4.437333 34.389333-24.4736 90.6496-43.298133 119.0656l-22.903467 7.7568c-14.071467 6.9888-27.665067 21.418667-41.9072 26.641067-6.178133 2.269867-32.768 8.8576-38.007467 8.8576-3.703467 0-7.236267-3.2768-10.914133-3.498667-25.984-1.604267-47.991467-1.7664-71.492267-15.069866-42.112-23.8336-58.581333-74.103467-56.661333-120.448 0.221867-5.307733 1.092267-16.930133 1.664-21.461334 1.143467-9.1136 6.024533-17.698133 5.717333-27.0848-7.671467-0.6656-16.170667 0.9984-23.6544 0.0512-4.573867-0.580267-4.8896-3.601067-5.205333-3.6608 28.450133 1.3312 56.994133-6.946133 82.986667-18.039466 10.8544 7.296-8.149333 13.243733-10.069334 15.1808-7.441067 7.5264-17.425067 37.102933-18.705066 48.042666-1.493333 12.834133 2.116267 49.297067 7.799466 60.578134 6.766933 13.431467 29.866667 36.829867 43.648 42.948266 35.370667 15.701333 92.4416 8.516267 121.5232-17.143466 5.307733-4.6848 22.280533-26.914133 24.686934-33.041067 17.066667-43.400533-0.8704-105.6256-39.0912-132.7104-7.816533-5.538133-18.4832-6.997333-25.156267-14.532267l43.2896-1.800533z" fill="#F8E4CD" p-id="2298"></path><path d="M109.252736 595.549867l43.2896 1.800533c-4.949333 6.1696-12.757333 5.777067-19.319467 9.540267-5.640533 3.234133-27.1616 18.261333-30.532266 21.777066-1.757867 1.8432-2.321067 7.901867-4.770134 11.460267-8.661333 12.612267-18.619733 24.4992-21.0944 40.260267-4.309333 27.4688-2.304 44.5696 8.917334 70.357333 7.261867 16.682667 20.642133 30.464 36.650666 39.1168 19.473067 10.5216 53.239467 17.390933 75.153067 14.8736 11.195733-1.288533 50.414933-17.408 57.7792-25.207467 9.693867-10.2656 21.162667-38.340267 23.415467-52.352 5.051733-31.4368-2.133333-56.618667-17.937067-82.935466-4.471467-7.4496-7.432533-9.9072 3.575467-8.9856 5.76 3.029333 34.244267 9.8816 41.5744 10.734933 9.8048 1.143467 20.616533-0.5888 30.583466 0.085333-0.3072 0.0768-0.3328 3.012267-5.179733 3.6864-8.448 1.169067-18.551467-0.9472-27.298133-0.0768-3.396267 3.293867 6.382933 27.793067 7.133866 34.3552 1.570133 13.627733 1.5104 40.379733 0.2304 54.178134-1.9456 20.957867-25.378133 56.456533-41.5744 70.272-12.091733 10.3168-35.7888 21.12-51.2512 24.516266-19.2768 4.224-55.261867 4.3008-74.496 0.093867-7.7312-1.6896-22.468267-11.8272-31.104-15.7952-4.5824-2.0992-10.043733-1.024-14.6432-3.396267-13.917867-7.202133-23.611733-33.476267-32.981333-46.395733-4.693333-6.468267-7.432533-10.5472-6.647467 1.2288C40.798336 732.4928 34.893269 711.816533 29.867136 671.325867c6.784-10.453333 8.789333-22.656 15.0016-33.706667 12.4928-22.229333 38.8352-40.644267 64.375467-42.0608z" fill="#F9E3CB" p-id="2299"></path><path d="M917.427669 595.549867l-43.2896 1.800533c6.673067 7.534933 17.339733 8.9856 25.156267 14.532267 38.212267 27.0848 56.149333 89.309867 39.0912 132.7104-2.4064 6.126933-19.3792 28.356267-24.686933 33.041066-29.0816 25.659733-86.152533 32.8448-121.5232 17.143467-13.781333-6.1184-36.872533-29.508267-43.648-42.948267-5.6832-11.281067-9.2928-47.744-7.799467-60.578133 1.28-10.948267 11.264-40.516267 18.705067-48.042667 1.92-1.9456 20.932267-7.893333 10.069333-15.1808 47.274667-20.1728 72.891733-36.5568 128.068267-36.0704 5.930667 0.0512 16.8448-2.6624 19.857066 3.601067z m2.082134 102.869333c0-41.856-33.928533-75.784533-75.784534-75.784533s-75.784533 33.928533-75.784533 75.784533 33.928533 75.784533 75.784533 75.784533 75.784533-33.928533 75.784534-75.784533zM264.388736 635.2384c-11.016533-0.913067-8.046933 1.536-3.575467 8.9856 15.803733 26.3168 22.9888 51.498667 17.937067 82.935467-2.2528 14.011733-13.7216 42.0864-23.415467 52.352-7.364267 7.799467-46.583467 23.918933-57.7792 25.207466-21.922133 2.517333-55.688533-4.352-75.153066-14.8736-16.008533-8.6528-29.397333-22.434133-36.650667-39.1168-11.221333-25.787733-13.226667-42.88-8.917333-70.357333 2.474667-15.752533 12.433067-27.648 21.0944-40.260267 2.449067-3.566933 3.003733-9.6256 4.770133-11.460266 3.362133-3.515733 24.891733-18.542933 30.532267-21.777067 6.562133-3.7632 14.370133-3.370667 19.319466-9.540267l-43.2896-1.800533c3.012267-6.263467 13.917867-3.541333 19.857067-3.601067 51.217067-0.520533 91.776 20.445867 135.287467 43.2896z m-9.992533 64.2304c0-42.257067-34.261333-76.5184-76.5184-76.5184s-76.5184 34.261333-76.5184 76.5184 34.261333 76.5184 76.5184 76.5184 76.5184-34.261333 76.5184-76.5184z" fill="#F9D4B8" p-id="2300"></path><path d="M653.491669 725.981867c16.059733 16.0768-10.257067 83.345067-22.980266 100.386133-82.176 110.045867-254.472533 61.824-268.637867-73.949867-1.8176-17.425067 6.186667-30.165333 23.389867-34.193066l245.4784-0.145067 22.749866 7.901867z m-159.223466 54.3488c-14.1056 1.493333-29.9264 5.956267-43.298134 10.820266-12.3904 4.514133-25.224533 10.1888-35.0464 19.0976-1.2544 4.4288 14.173867 18.3552 18.193067 21.469867 56.2176 43.5712 128.264533 31.3344 173.0048-21.495467-32.674133-22.894933-73.002667-34.116267-112.861867-29.9008z" fill="#502F28" p-id="2301"></path><path d="M494.276736 596.334933c34.312533-4.164267 94.097067 5.905067 87.6032 51.541334-2.926933 20.548267-33.8432 41.147733-53.000533 44.3904-26.538667 4.497067-63.556267-4.5056-80.554667-26.2912-30.293333-38.8352 9.198933-65.1776 45.943467-69.649067z" fill="#4F2F27" p-id="2302"></path><path d="M919.509803 698.4192c0 41.856-33.928533 75.784533-75.784534 75.784533s-75.784533-33.928533-75.784533-75.784533 33.928533-75.784533 75.784533-75.784533 75.784533 33.928533 75.784534 75.784533z m-82.5856-51.6864c-49.621333 9.070933-55.1424 76.3648-10.743467 95.991467 33.297067 14.72 70.3232-16.145067 65.92-51.515734-2.9952-24.1152-30.5408-48.981333-55.176533-44.475733z" fill="#F9C6A7" p-id="2303"></path><path d="M254.396203 699.4688c0 42.257067-34.261333 76.5184-76.5184 76.5184s-76.5184-34.261333-76.5184-76.5184 34.261333-76.5184 76.5184-76.5184 76.5184 34.261333 76.5184 76.5184z m-77.781334-52.7616c-17.3568 1.4592-34.602667 19.626667-40.439466 35.310933-13.559467 36.420267 16.6144 70.7328 54.3488 65.152 7.466667-1.109333 31.505067-27.426133 33.664-34.8672 3.822933-13.218133 0.213333-39.9872-10.3424-49.954133-6.536533-6.1696-28.706133-16.349867-37.2224-15.633067z" fill="#F9C7A7" p-id="2304"></path><path d="M494.268203 780.330667c39.8592-4.215467 80.187733 6.997333 112.861866 29.9008-44.7488 52.829867-116.795733 65.058133-173.0048 21.495466-4.0192-3.114667-19.447467-17.041067-18.193066-21.469866 9.821867-8.900267 22.656-14.583467 35.0464-19.0976 13.371733-4.872533 29.192533-9.335467 43.298133-10.820267z" fill="#F8AC97" p-id="2305"></path><path d="M836.924203 646.7328c24.635733-4.5056 52.181333 20.369067 55.176533 44.475733 4.4032 35.370667-32.622933 66.235733-65.92 51.515734-44.398933-19.626667-38.877867-86.920533 10.743467-95.991467z" fill="#FABB98" p-id="2306"></path><path d="M176.614869 646.7072c8.516267-0.7168 30.685867 9.463467 37.2224 15.633067 10.564267 9.966933 14.165333 36.736 10.3424 49.954133-2.1504 7.441067-26.1888 33.7664-33.664 34.8672-37.7344 5.589333-67.908267-28.731733-54.3488-65.152 5.8368-15.684267 23.082667-33.851733 40.439467-35.310933z" fill="#FBBA97" p-id="2307"></path></svg>